<svg width="100" height="26" viewBox="0 0 100 26" fill="none" xmlns="http://www.w3.org/2000/svg">
<path d="M57.8398 7.25634L63.557 5.13991L57.8398 2.96301V0L67.632 3.93052V6.3493L57.8398 10.2798V7.25634Z" fill="#A100FF"/>
<path d="M3.77088 26.0003C1.70298 26.0003 0 24.9723 0 22.6744V22.5535C0 19.7719 2.43283 18.8044 5.41304 18.8044H6.81191V18.2602C6.81191 17.1112 6.32535 16.4461 5.10894 16.4461C4.01416 16.4461 3.46678 17.0508 3.40596 17.8974H0.364924C0.608207 15.3576 2.61529 14.1482 5.2914 14.1482C8.02833 14.1482 10.0354 15.2972 10.0354 18.1392V25.7584H6.93356V24.4281C6.32535 25.2746 5.2914 26.0003 3.77088 26.0003ZM6.81191 22.0093V20.9208H5.53468C3.95334 20.9208 3.16267 21.3441 3.16267 22.3721V22.493C3.16267 23.2791 3.64924 23.8234 4.74401 23.8234C5.83878 23.7629 6.81191 23.1582 6.81191 22.0093ZM17.2731 26.0003C14.1104 26.0003 11.7992 24.0652 11.7992 20.1952V20.0138C11.7992 16.1437 14.232 14.0878 17.2731 14.0878C19.8884 14.0878 22.0171 15.4181 22.2604 18.3811H19.2193C19.0369 17.2927 18.4287 16.567 17.3339 16.567C15.9958 16.567 15.0227 17.6555 15.0227 19.8928V20.2557C15.0227 22.5535 15.8742 23.5815 17.3339 23.5815C18.4287 23.5815 19.2193 22.7954 19.4018 21.5255H22.3212C22.1387 24.1862 20.3749 26.0003 17.2731 26.0003ZM29.1939 26.0003C26.0312 26.0003 23.7201 24.0652 23.7201 20.1952V20.0138C23.7201 16.1437 26.1529 14.0878 29.1939 14.0878C31.8092 14.0878 33.9379 15.4181 34.1812 18.3811H31.1402C30.9577 17.2927 30.3495 16.567 29.2547 16.567C27.9167 16.567 26.9436 17.6555 26.9436 19.8928V20.2557C26.9436 22.5535 27.795 23.5815 29.2547 23.5815C30.3495 23.5815 31.1402 22.7954 31.3226 21.5255H34.242C34.0596 24.1862 32.2958 26.0003 29.1939 26.0003ZM41.1756 26.0003C37.8913 26.0003 35.6409 24.0652 35.6409 20.2557V20.0138C35.6409 16.2042 38.0129 14.0878 41.1148 14.0878C43.9733 14.0878 46.3453 15.66 46.3453 19.4696V20.8604H38.8644C38.986 22.9163 39.8984 23.7024 41.2364 23.7024C42.4528 23.7024 43.1219 23.0373 43.3651 22.2512H46.3453C45.9804 24.3676 44.1558 26.0003 41.1756 26.0003ZM38.9252 18.7439H43.1827C43.1219 17.0508 42.3312 16.3251 41.054 16.3251C40.0808 16.3856 39.1685 16.9298 38.9252 18.7439ZM48.2916 14.3901H51.5151V16.0833C52.0625 14.9948 53.2181 14.1482 54.9819 14.1482C57.0498 14.1482 58.4487 15.4181 58.4487 18.1392V25.7584H55.2252V18.623C55.2252 17.2927 54.6778 16.688 53.5222 16.688C52.4274 16.688 51.5151 17.3531 51.5151 18.8044V25.7584H48.2916V14.3901ZM64.3483 10.9434V14.3901H66.5378V16.7484H64.3483V22.1302C64.3483 22.9768 64.7132 23.4001 65.5039 23.4001C65.9904 23.4001 66.2945 23.3396 66.5986 23.2187V25.6979C66.2337 25.8189 65.5647 25.9398 64.774 25.9398C62.2804 25.9398 61.1248 24.7909 61.1248 22.493V16.7484H59.7867V14.3901H61.1248V12.2737L64.3483 10.9434ZM78.5803 25.7584H75.4176V24.0652C74.8702 25.1537 73.7755 26.0003 72.0725 26.0003C70.0046 26.0003 68.4841 24.7304 68.4841 22.0697V14.3901H71.7076V21.6465C71.7076 22.9768 72.255 23.5815 73.3497 23.5815C74.4445 23.5815 75.3568 22.8559 75.3568 21.4651V14.3901H78.5803V25.7584ZM80.9523 14.3901H84.1758V16.5066C84.8448 14.9948 85.9396 14.2692 87.6426 14.2692V17.4136C85.453 17.4136 84.1758 18.0788 84.1758 19.9533V25.8189H80.9523V14.3901ZM94.1504 26.0003C90.8661 26.0003 88.6157 24.0652 88.6157 20.2557V20.0138C88.6157 16.2042 90.9877 14.0878 94.0896 14.0878C96.9481 14.0878 99.3202 15.66 99.3202 19.4696V20.8604H91.9C92.0217 22.9163 92.934 23.7024 94.272 23.7024C95.4884 23.7024 96.1575 23.0373 96.4008 22.2512H99.381C98.8944 24.3676 97.1306 26.0003 94.1504 26.0003ZM91.8392 18.7439H96.1575C96.0967 17.0508 95.306 16.3251 94.0288 16.3251C93.0556 16.3856 92.1433 16.9298 91.8392 18.7439Z" fill="#1F2937"/>
</svg>
