<svg width="87" height="26" viewBox="0 0 87 26" fill="none" xmlns="http://www.w3.org/2000/svg">
<path d="M53.5284 20.3325C48.5145 24.0282 41.2471 25.9999 34.9901 25.9999C26.2167 25.9999 18.3184 22.755 12.343 17.358C11.8735 16.9336 12.2942 16.3552 12.8575 16.6857C19.3061 20.4377 27.2796 22.6949 35.5159 22.6949C41.0706 22.6949 47.1812 21.5456 52.7998 19.1608C53.6486 18.8002 54.3584 19.7166 53.5284 20.3325Z" fill="#FF9900"/>
<path d="M55.6118 17.9491C54.9733 17.1303 51.3753 17.5622 49.7604 17.7538C49.2684 17.8139 49.1933 17.3857 49.6364 17.0777C52.5021 15.0609 57.2042 15.6431 57.7526 16.3191C58.3009 16.9989 57.6099 21.7123 54.917 23.962C54.5039 24.3075 54.1095 24.1235 54.2935 23.6653C54.8982 22.1555 56.254 18.7716 55.6118 17.9491Z" fill="#FF9900"/>
<path d="M49.8745 2.83906V0.878569C49.8745 0.581866 50.0999 0.382812 50.3703 0.382812H59.1474C59.4291 0.382812 59.6544 0.585622 59.6544 0.878569V2.55738C59.6507 2.83906 59.4141 3.20712 58.9934 3.78926L54.4452 10.2829C56.1353 10.2416 57.9193 10.4932 59.4516 11.3571C59.7972 11.5524 59.8911 11.8378 59.9173 12.1195V14.2114C59.9173 14.4969 59.6019 14.8311 59.2714 14.6584C56.571 13.2424 52.9843 13.0885 49.9985 14.6734C49.6942 14.8386 49.375 14.5081 49.375 14.2227V12.2359C49.375 11.9167 49.3788 11.3721 49.698 10.8876L54.9673 3.33106H50.3815C50.0999 3.33106 49.8745 3.13201 49.8745 2.83906Z" fill="#221F1F"/>
<path d="M17.8543 15.0731H15.184C14.9286 15.0543 14.7258 14.8628 14.707 14.6187V0.914007C14.707 0.639839 14.9361 0.422004 15.2216 0.422004H17.7116C17.9708 0.433264 18.1773 0.632325 18.1961 0.880203V2.67169H18.2449C18.8947 0.940295 20.1153 0.132812 21.7603 0.132812C23.4316 0.132812 24.4757 0.940295 25.2268 2.67169C25.8728 0.940295 27.3413 0.132812 28.915 0.132812C30.0342 0.132812 31.2585 0.594767 32.0059 1.63135C32.851 2.78436 32.6782 4.45942 32.6782 5.92791L32.6745 14.5774C32.6745 14.8515 32.4454 15.0731 32.1599 15.0731H29.4934C29.2267 15.0543 29.0126 14.8403 29.0126 14.5774V7.31378C29.0126 6.73539 29.0652 5.29319 28.9375 4.74485C28.7385 3.8247 28.1413 3.56555 27.3676 3.56555C26.7216 3.56555 26.0456 3.99746 25.7714 4.68852C25.4973 5.37957 25.5235 6.53634 25.5235 7.31378V14.5774C25.5235 14.8515 25.2944 15.0731 25.009 15.0731H22.3424C22.072 15.0543 21.8617 14.8403 21.8617 14.5774L21.8579 7.31378C21.8579 5.78519 22.1096 3.53551 20.2129 3.53551C18.2938 3.53551 18.3689 5.72885 18.3689 7.31378V14.5774C18.3689 14.8515 18.1398 15.0731 17.8543 15.0731Z" fill="#221F1F"/>
<path d="M67.2084 0.132812C71.1707 0.132812 73.3152 3.53551 73.3152 7.86211C73.3152 12.0422 70.9454 15.3586 67.2084 15.3586C63.3175 15.3586 61.1992 11.9559 61.1992 7.71564C61.1992 3.44913 63.3437 0.132812 67.2084 0.132812ZM67.2309 2.93084C65.2629 2.93084 65.139 5.61243 65.139 7.28373C65.139 8.95879 65.1127 12.5342 67.2084 12.5342C69.2778 12.5342 69.3755 9.64984 69.3755 7.89216C69.3755 6.73539 69.3266 5.35328 68.9773 4.25661C68.6769 3.30265 68.0797 2.93084 67.2309 2.93084Z" fill="#221F1F"/>
<path d="M78.456 15.0731H75.797C75.5303 15.0543 75.3163 14.8403 75.3163 14.5774L75.3125 0.868936C75.335 0.617302 75.5566 0.422004 75.827 0.422004H78.3021C78.5349 0.433264 78.7265 0.591013 78.779 0.80509V2.90079H78.8279C79.5753 1.02668 80.6231 0.132812 82.4672 0.132812C83.6652 0.132812 84.8333 0.564722 85.5844 1.74778C86.283 2.84445 86.283 4.68852 86.283 6.01429V14.6412C86.253 14.8816 86.0314 15.0731 85.7685 15.0731H83.0906C82.8465 15.0543 82.6437 14.8741 82.6174 14.6412V7.19735C82.6174 5.69881 82.7902 3.50546 80.9461 3.50546C80.2964 3.50546 79.6992 3.94113 79.4025 4.60214C79.0269 5.43967 78.9781 6.27344 78.9781 7.19735V14.5774C78.9743 14.8515 78.7415 15.0731 78.456 15.0731Z" fill="#221F1F"/>
<path d="M42.8761 8.52551V7.94713C40.9456 7.94713 38.9063 8.36026 38.9063 10.6362C38.9063 11.7892 39.5034 12.5704 40.5287 12.5704C41.2799 12.5704 41.9522 12.1085 42.3766 11.3573C42.9024 10.4334 42.8761 9.56585 42.8761 8.52551ZM45.5689 15.0342C45.3924 15.1919 45.137 15.2032 44.938 15.098C44.0516 14.3619 43.8939 14.0202 43.4056 13.3178C41.9409 14.8126 40.9043 15.2595 39.0039 15.2595C36.758 15.2595 35.0078 13.8737 35.0078 11.0982C35.0078 8.93114 36.1834 7.45513 37.8547 6.73403C39.3044 6.09555 41.3287 5.98288 42.8761 5.80637V5.46084C42.8761 4.82612 42.9249 4.07497 42.5531 3.52664C42.2263 3.03463 41.6029 2.83182 41.0545 2.83182C40.0367 2.83182 39.1279 3.35387 38.9063 4.43552C38.8612 4.67589 38.6847 4.9125 38.4443 4.92377L35.8529 4.64584C35.635 4.59702 35.3947 4.4205 35.4547 4.08624C36.0519 0.946447 38.8875 0 41.4264 0C42.7258 0 44.4234 0.345527 45.4487 1.32953C46.7482 2.54263 46.6243 4.16135 46.6243 5.92279V10.0841C46.6243 11.3348 47.1426 11.8831 47.6308 12.5592C47.8036 12.7995 47.8412 13.0887 47.6233 13.269C47.0787 13.7235 46.1098 14.5685 45.5764 15.0417L45.5689 15.0342Z" fill="#221F1F"/>
<path d="M7.86826 8.52551V7.94713C5.93781 7.94713 3.89845 8.36026 3.89845 10.6362C3.89845 11.7892 4.49561 12.5704 5.52093 12.5704C6.27207 12.5704 6.94435 12.1085 7.36875 11.3573C7.89455 10.4334 7.86826 9.56585 7.86826 8.52551ZM10.5611 15.0342C10.3846 15.1919 10.1292 15.2032 9.93016 15.098C9.04381 14.3619 8.88606 14.0202 8.39782 13.3178C6.93308 14.8126 5.8965 15.2595 3.9961 15.2595C1.75017 15.2595 0 13.8737 0 11.0982C0 8.93114 1.17554 7.45513 2.84684 6.73403C4.29656 6.09555 6.3209 5.98288 7.86826 5.80637V5.46084C7.86826 4.82612 7.91709 4.07497 7.54527 3.52664C7.21852 3.03463 6.59507 2.83182 6.04673 2.83182C5.02893 2.83182 4.12004 3.35387 3.89845 4.43552C3.85338 4.67589 3.67686 4.9125 3.4365 4.92377L0.84504 4.64584C0.627207 4.59702 0.38684 4.4205 0.446932 4.08624C1.04409 0.946447 3.87967 0 6.41855 0C7.71803 0 9.41562 0.345527 10.4409 1.32953C11.7404 2.54263 11.6165 4.16135 11.6165 5.92279V10.0841C11.6165 11.3348 12.1348 11.8831 12.623 12.5592C12.7958 12.7995 12.8333 13.0887 12.6155 13.269C12.0709 13.7235 11.1019 14.5685 10.5686 15.0417L10.5611 15.0342Z" fill="#221F1F"/>
</svg>
