<?xml version="1.0" encoding="UTF-8" standalone="no"?>
<svg
   width="1920"
   height="295.64301"
   viewBox="0 0 1920 295.64301"
   fill="none"
   version="1.1"
   id="svg193"
   sodipodi:docname="8fcff79c19539735552757f72b6e8d2c.svg"
   xmlns:inkscape="http://www.inkscape.org/namespaces/inkscape"
   xmlns:sodipodi="http://sodipodi.sourceforge.net/DTD/sodipodi-0.dtd"
   xmlns="http://www.w3.org/2000/svg"
   xmlns:svg="http://www.w3.org/2000/svg">
  <!-- <sodipodi:namedview
     id="namedview195"
     pagecolor="#ffffff"
     bordercolor="#666666"
     borderopacity="1.0"
     inkscape:pageshadow="2"
     inkscape:pageopacity="0.0"
     inkscape:pagecheckerboard="0" /> -->
  <g
     opacity="0.3"
     clip-path="url(#clip0_1905_11554)"
     id="g186">
    <path
       d="M 295.414,-54.2188 V -0.450872 L 341.992,26.4295 388.562,-0.450872 V -54.2188"
       stroke="#4068ff"
       stroke-width="0.66"
       stroke-miterlimit="10"
       id="path2" />
    <path
       d="M 388.562,-54.2188 V -0.450872 L 435.14,26.4295"
       stroke="#4068ff"
       stroke-width="0.66"
       stroke-miterlimit="10"
       id="path4" />
    <path
       d="M 388.562,107.078 V 53.3101 l 46.578,-26.8804 46.578,26.8804 v 53.7679 l -46.578,26.887 z"
       stroke="#4068ff"
       stroke-width="0.66"
       stroke-miterlimit="10"
       id="path6" />
    <path
       d="M 295.414,53.3124 V -0.448397 l 46.578,-26.887503 46.57,26.887503"
       stroke="#4068ff"
       stroke-width="0.66"
       stroke-miterlimit="10"
       id="path8" />
    <path
       d="M 435.149,26.4341 388.578,-0.446231 V -54.2141 l 46.571,-26.8875 46.578,26.8875"
       stroke="#4068ff"
       stroke-width="0.66"
       stroke-miterlimit="10"
       id="path10" />
    <path
       d="M 668.016,-54.2188 V -0.450872 L 714.586,26.4295"
       stroke="#4068ff"
       stroke-width="0.66"
       stroke-miterlimit="10"
       id="path12" />
    <path
       d="M 714.601,26.4341 668.023,-0.446231 V -54.2141 l 46.578,-26.8875 46.571,26.8875"
       stroke="#4068ff"
       stroke-width="0.66"
       stroke-miterlimit="10"
       id="path14" />
    <path
       d="M 854.32,53.3124 V -0.448397 L 807.75,-27.3359 761.172,-0.448397"
       stroke="#4068ff"
       stroke-width="0.66"
       stroke-miterlimit="10"
       id="path16" />
    <path
       d="m 854.321,160.848 46.577,-26.88 V 80.2 L 854.321,53.3125 807.75,80.2"
       stroke="#4068ff"
       stroke-width="0.66"
       stroke-miterlimit="10"
       id="path18" />
    <path
       d="m 761.179,107.078 -46.577,26.888 v 53.76 l 46.577,26.888 46.578,-26.888"
       stroke="#4068ff"
       stroke-width="0.66"
       stroke-miterlimit="10"
       id="path20" />
    <path
       d="m 714.602,187.726 v -53.76 l 46.577,-26.888 46.578,26.888"
       stroke="#4068ff"
       stroke-width="0.66"
       stroke-miterlimit="10"
       id="path22" />
    <path
       d="m 621.453,80.1953 v 53.7677 l 46.578,26.881"
       stroke="#4068ff"
       stroke-width="0.66"
       stroke-miterlimit="10"
       id="path24" />
    <path
       d="m 807.75,187.726 v -53.76 l 46.571,-26.888 46.577,26.888 v 53.76 l -46.577,26.888 z"
       stroke="#4068ff"
       stroke-width="0.66"
       stroke-miterlimit="10"
       id="path26" />
    <path
       d="m 621.453,241.492 v -53.768 l 46.578,-26.88 46.571,26.88 v 53.768 l -46.571,26.888 z"
       stroke="#4068ff"
       stroke-width="0.66"
       stroke-miterlimit="10"
       id="path28" />
    <path
       d="M 807.757,133.969 V 187.73 L 761.179,214.617 714.602,187.73 V 133.969"
       stroke="#4068ff"
       stroke-width="0.66"
       stroke-miterlimit="10"
       id="path30" />
    <path
       d="m 714.602,133.969 v 53.761 l -46.571,26.887"
       stroke="#4068ff"
       stroke-width="0.66"
       stroke-miterlimit="10"
       id="path32" />
    <path
       d="m 761.188,268.382 v -53.768 l 46.577,-26.887 46.578,26.887 v 53.768 l -46.578,26.88 z"
       stroke="#4068ff"
       stroke-width="0.66"
       stroke-miterlimit="10"
       id="path34" />
    <path
       d="m 714.609,187.727 46.571,26.887 v 53.768 l -46.571,26.88 -46.578,-26.88"
       stroke="#4068ff"
       stroke-width="0.66"
       stroke-miterlimit="10"
       id="path36" />
    <path
       d="m 668.031,214.617 v -53.768 l 46.578,-26.88 46.571,26.88"
       stroke="#4068ff"
       stroke-width="0.66"
       stroke-miterlimit="10"
       id="path38" />
    <path
       d="m 761.18,268.382 v -53.768 l -46.571,-26.887 -46.578,26.887"
       stroke="#4068ff"
       stroke-width="0.66"
       stroke-miterlimit="10"
       id="path40" />
    <path
       d="m 854.343,160.844 v 53.768 l -46.577,26.88"
       stroke="#4068ff"
       stroke-width="0.66"
       stroke-miterlimit="10"
       id="path42" />
    <path
       d="m 807.766,187.726 v -53.76 l 46.577,-26.888 46.571,26.888 v 53.76 l -46.571,26.888 z"
       stroke="#4068ff"
       stroke-width="0.66"
       stroke-miterlimit="10"
       id="path44" />
    <path
       d="m 668.039,160.848 -46.57,-26.88 V 80.2 L 668.039,53.3125 714.617,80.2"
       stroke="#4068ff"
       stroke-width="0.66"
       stroke-miterlimit="10"
       id="path46" />
    <path
       d="m 761.18,107.078 46.578,26.888 v 53.76 l -46.578,26.888 -46.571,-26.888"
       stroke="#4068ff"
       stroke-width="0.66"
       stroke-miterlimit="10"
       id="path48" />
    <path
       d="m 807.758,187.726 v -53.76 l -46.578,-26.888 -46.571,26.888"
       stroke="#4068ff"
       stroke-width="0.66"
       stroke-miterlimit="10"
       id="path50" />
    <path
       d="M 668.062,-0.453125 621.484,26.4272 v 53.7679 l 46.578,26.8809 46.578,-26.8809"
       stroke="#4068ff"
       stroke-width="0.66"
       stroke-miterlimit="10"
       id="path52" />
    <path
       d="M 1692.7,-0.446231 V -54.2141 l -46.58,-26.8875 -46.57,26.8875 v 53.767869 l 46.57,26.880331 z"
       stroke="#4068ff"
       stroke-width="0.66"
       stroke-miterlimit="10"
       id="path54" />
    <path
       d="m 1459.83,-81.1016 -46.58,26.8875 v 53.767869 l 46.58,26.880331 46.58,-26.880331"
       stroke="#4068ff"
       stroke-width="0.66"
       stroke-miterlimit="10"
       id="path56" />
    <path
       d="M 1506.41,-0.446231 V -54.2141 l 46.57,-26.8875 46.57,26.8875 V -0.446231 L 1552.98,26.4341 Z"
       stroke="#4068ff"
       stroke-width="0.66"
       stroke-miterlimit="10"
       id="path58" />
    <path
       d="M 1320.11,53.3124 V -0.448397 l 46.58,-26.887503 46.57,26.887503 V 53.3124 l -46.57,26.8874 z"
       stroke="#4068ff"
       stroke-width="0.66"
       stroke-miterlimit="10"
       id="path60" />
    <path
       d="M 1506.41,-54.2188 V -0.450872 L 1459.83,26.4295 1413.25,-0.450872 V -54.2188"
       stroke="#4068ff"
       stroke-width="0.66"
       stroke-miterlimit="10"
       id="path62" />
    <path
       d="M 1413.26,-54.2188 V -0.450872 L 1366.69,26.4295"
       stroke="#4068ff"
       stroke-width="0.66"
       stroke-miterlimit="10"
       id="path64" />
    <path
       d="M 1459.84,80.1951 V 26.4272 l 46.57,-26.880325 46.57,26.880325 v 53.7679 l -46.57,26.8809 z"
       stroke="#4068ff"
       stroke-width="0.66"
       stroke-miterlimit="10"
       id="path66" />
    <path
       d="m 1413.27,-0.453125 46.57,26.880325 v 53.7679 l -46.57,26.8809 -46.58,-26.8809"
       stroke="#4068ff"
       stroke-width="0.66"
       stroke-miterlimit="10"
       id="path68" />
    <path
       d="m 1366.69,26.4295 v -53.7679 l 46.58,-26.8804 46.57,26.8804"
       stroke="#4068ff"
       stroke-width="0.66"
       stroke-miterlimit="10"
       id="path70" />
    <path
       d="M 1459.84,80.1951 V 26.4272 L 1413.27,-0.453125 1366.69,26.4272"
       stroke="#4068ff"
       stroke-width="0.66"
       stroke-miterlimit="10"
       id="path72" />
    <path
       d="M 1506.41,-0.446231 V -54.2141 l 46.57,-26.8875 46.58,26.8875 V -0.446231 L 1552.98,26.4341 Z"
       stroke="#4068ff"
       stroke-width="0.66"
       stroke-miterlimit="10"
       id="path74" />
    <path
       d="m 1459.84,-81.1016 46.57,26.8875 V -0.446231 L 1459.84,26.4341 1413.27,-0.446231"
       stroke="#4068ff"
       stroke-width="0.66"
       stroke-miterlimit="10"
       id="path76" />
    <path
       d="m 1459.81,80.1953 v 53.7677 l 46.58,26.881 46.58,-26.881 V 80.1953"
       stroke="#4068ff"
       stroke-width="0.66"
       stroke-miterlimit="10"
       id="path78" />
    <path
       d="M 1552.97,80.1953 V 133.963"
       stroke="#4068ff"
       stroke-width="0.66"
       stroke-miterlimit="10"
       id="path80" />
    <path
       d="m 1459.81,133.966 46.58,-26.888 46.58,26.888"
       stroke="#4068ff"
       stroke-width="0.66"
       stroke-miterlimit="10"
       id="path82" />
    <path
       d="M 1646.13,80.1951 V 26.4272 L 1599.56,-0.453125 1552.98,26.4272 v 53.7679 l 46.58,26.8809 z"
       stroke="#4068ff"
       stroke-width="0.66"
       stroke-miterlimit="10"
       id="path84" />
    <path
       d="M 1552.98,133.968 V 80.2 l 46.58,-26.8875 46.57,26.8875"
       stroke="#4068ff"
       stroke-width="0.66"
       stroke-miterlimit="10"
       id="path86" />
    <path
       d="m 1692.71,-0.453125 46.58,26.880325 v 53.7679 l -46.58,26.8809 -46.58,-26.8809"
       stroke="#4068ff"
       stroke-width="0.66"
       stroke-miterlimit="10"
       id="path88" />
    <path
       d="m 1646.13,26.4295 v -53.7679 l 46.58,-26.8804 46.58,26.8804"
       stroke="#4068ff"
       stroke-width="0.66"
       stroke-miterlimit="10"
       id="path90" />
    <path
       d="M 1739.29,80.1951 V 26.4272 L 1692.71,-0.453125 1646.13,26.4272"
       stroke="#4068ff"
       stroke-width="0.66"
       stroke-miterlimit="10"
       id="path92" />
    <path
       d="m 1226.96,-54.2188 v 53.767928 l 46.57,26.880372 46.58,-26.880372 V -54.2188"
       stroke="#4068ff"
       stroke-width="0.66"
       stroke-miterlimit="10"
       id="path94" />
    <path
       d="M 1226.96,53.3124 V -0.448397 l 46.57,-26.887503 46.58,26.887503"
       stroke="#4068ff"
       stroke-width="0.66"
       stroke-miterlimit="10"
       id="path96" />
    <path
       d="m 900.953,26.4295 v -53.7679 l 46.571,-26.8804 46.578,26.8804 v 53.7679 l -46.578,26.8804 z"
       stroke="#4068ff"
       stroke-width="0.66"
       stroke-miterlimit="10"
       id="path98" />
    <path
       d="M 900.93,26.4297 V 80.1976 L 947.5,107.078 994.078,80.1976 V 26.4297"
       stroke="#4068ff"
       stroke-width="0.66"
       stroke-miterlimit="10"
       id="path100" />
    <path
       d="m 994.078,26.4297 v 53.7679 l 46.572,26.8804"
       stroke="#4068ff"
       stroke-width="0.66"
       stroke-miterlimit="10"
       id="path102" />
    <path
       d="m 994.078,187.726 v -53.76 l 46.572,-26.888 46.58,26.888 v 53.76 l -46.58,26.888 z"
       stroke="#4068ff"
       stroke-width="0.66"
       stroke-miterlimit="10"
       id="path104" />
    <path
       d="M 900.93,133.968 V 80.2 L 947.5,53.3125 994.078,80.2"
       stroke="#4068ff"
       stroke-width="0.66"
       stroke-miterlimit="10"
       id="path106" />
    <path
       d="m 1087.23,80.1953 v 53.7677 l -46.57,26.881"
       stroke="#4068ff"
       stroke-width="0.66"
       stroke-miterlimit="10"
       id="path108" />
    <path
       d="m 1087.24,26.4295 v -53.7679 l -46.57,-26.8804 -46.576,26.8804 v 53.7679 l 46.576,26.8804 z"
       stroke="#4068ff"
       stroke-width="0.66"
       stroke-miterlimit="10"
       id="path110" />
    <path
       d="M 1040.67,107.076 994.094,80.1951 V 26.4272 l 46.576,-26.880325 46.57,26.880325"
       stroke="#4068ff"
       stroke-width="0.66"
       stroke-miterlimit="10"
       id="path112" />
    <path
       d="m 1180.4,26.4295 v -53.7679 l 46.57,-26.8804 46.58,26.8804 v 53.7679 l -46.58,26.8804 z"
       stroke="#4068ff"
       stroke-width="0.66"
       stroke-miterlimit="10"
       id="path114" />
    <path
       d="m 1133.82,-54.2188 46.58,26.8804 v 53.7679 l -46.58,26.8804 -46.57,-26.8804"
       stroke="#4068ff"
       stroke-width="0.66"
       stroke-miterlimit="10"
       id="path116" />
    <path
       d="m 1180.4,26.4295 v -53.7679 l -46.58,-26.8804 -46.57,26.8804"
       stroke="#4068ff"
       stroke-width="0.66"
       stroke-miterlimit="10"
       id="path118" />
    <path
       d="m 1180.38,26.4297 v 53.7679 l 46.57,26.8804 46.58,-26.8804 V 26.4297"
       stroke="#4068ff"
       stroke-width="0.66"
       stroke-miterlimit="10"
       id="path120" />
    <path
       d="M 947.367,107.078 V 53.3101 l 46.578,-26.8804 46.575,26.8804"
       stroke="#4068ff"
       stroke-width="0.66"
       stroke-miterlimit="10"
       id="path122" />
    <path
       d="M 1180.38,133.968 V 80.2 l 46.57,-26.8875 46.58,26.8875"
       stroke="#4068ff"
       stroke-width="0.66"
       stroke-miterlimit="10"
       id="path124" />
    <path
       d="m 1226.99,160.844 v -53.768 l -46.58,-26.8807 -46.57,26.8807 v 53.768 l 46.57,26.88 z"
       stroke="#4068ff"
       stroke-width="0.66"
       stroke-miterlimit="10"
       id="path126" />
    <path
       d="m 1133.84,107.078 -46.57,26.888 v 53.76 l 46.57,26.888 46.57,-26.888"
       stroke="#4068ff"
       stroke-width="0.66"
       stroke-miterlimit="10"
       id="path128" />
    <path
       d="m 1087.27,187.726 v -53.76 l 46.57,-26.888 46.57,26.888"
       stroke="#4068ff"
       stroke-width="0.66"
       stroke-miterlimit="10"
       id="path130" />
    <path
       d="m 248.773,26.4295 v -53.7679 l 46.578,-26.8804 46.571,26.8804 v 53.7679 l -46.571,26.8804 z"
       stroke="#4068ff"
       stroke-width="0.66"
       stroke-miterlimit="10"
       id="path132" />
    <path
       d="m 155.633,26.4295 v -53.7679 l 46.57,-26.8804 46.578,26.8804"
       stroke="#4068ff"
       stroke-width="0.66"
       stroke-miterlimit="10"
       id="path134" />
    <path
       d="m -77.25,160.844 v -53.768 l 46.5778,-26.8807 46.5706,26.8807 v 53.768 l -46.5706,26.88 z"
       stroke="#4068ff"
       stroke-width="0.66"
       stroke-miterlimit="10"
       id="path136" />
    <path
       d="M 15.8988,53.3125 V 107.08 l -46.5707,26.888"
       stroke="#4068ff"
       stroke-width="0.66"
       stroke-miterlimit="10"
       id="path138" />
    <path
       d="M -30.6644,80.1998 -77.2422,53.3124 V -0.448397 L -30.6644,-27.3359 15.9134,-0.448397"
       stroke="#4068ff"
       stroke-width="0.66"
       stroke-miterlimit="10"
       id="path140" />
    <path
       d="M 109.062,-0.446231 V -54.2141 l 46.578,-26.8875 46.571,26.8875 V -0.446231 L 155.64,26.4341 Z"
       stroke="#4068ff"
       stroke-width="0.66"
       stroke-miterlimit="10"
       id="path142" />
    <path
       d="M 62.4925,-81.1016 109.07,-54.2141 V -0.446231 L 62.4925,26.4341 15.9219,-0.446231"
       stroke="#4068ff"
       stroke-width="0.66"
       stroke-miterlimit="10"
       id="path144" />
    <path
       d="M 109.047,-0.453125 V 53.3076 l 46.578,26.8875 46.57,-26.8875 V -0.453125"
       stroke="#4068ff"
       stroke-width="0.66"
       stroke-miterlimit="10"
       id="path146" />
    <path
       d="M 109.047,107.078 V 53.3101 l 46.578,-26.8804 46.57,26.8804"
       stroke="#4068ff"
       stroke-width="0.66"
       stroke-miterlimit="10"
       id="path148" />
    <path
       d="M 155.664,133.968 V 80.2 L 109.086,53.3125 62.5156,80.2 v 53.768 l 46.5704,26.88 z"
       stroke="#4068ff"
       stroke-width="0.66"
       stroke-miterlimit="10"
       id="path150" />
    <path
       d="M 62.5082,80.1953 15.9375,107.076 v 53.768 l 46.5707,26.88 46.5778,-26.88"
       stroke="#4068ff"
       stroke-width="0.66"
       stroke-miterlimit="10"
       id="path152" />
    <path
       d="M 15.9375,160.844 V 107.076 L 62.5082,80.1953 109.086,107.076"
       stroke="#4068ff"
       stroke-width="0.66"
       stroke-miterlimit="10"
       id="path154" />
    <path
       d="M 947.391,-0.454044 V -54.2219 l 46.577,-26.8875 46.572,26.8875 V -0.454044 L 993.968,26.4263 Z"
       stroke="#94aaff"
       stroke-width="0.66"
       stroke-miterlimit="10"
       id="path156" />
    <path
       d="m 900.812,-81.1094 46.571,26.8875 V -0.454044 L 900.812,26.4263 854.234,-0.454044"
       stroke="#94aaff"
       stroke-width="0.66"
       stroke-miterlimit="10"
       id="path158" />
    <path
       d="M 947.359,-0.453125 V 53.3076 l 46.578,26.8875 46.573,-26.8875 V -0.453125"
       stroke="#94aaff"
       stroke-width="0.66"
       stroke-miterlimit="10"
       id="path160" />
    <path
       d="M 947.359,107.078 V 53.3101 l 46.578,-26.8804 46.573,26.8804"
       stroke="#94aaff"
       stroke-width="0.66"
       stroke-miterlimit="10"
       id="path162" />
    <path
       d="M 807.727,-27.3359 761.156,-0.448397 V 53.3124 l 46.571,26.8874 46.578,-26.8874"
       stroke="#94aaff"
       stroke-width="0.66"
       stroke-miterlimit="10"
       id="path164" />
    <path
       d="M 761.156,53.3124 V -0.448397 l 46.571,-26.887503 46.578,26.887503"
       stroke="#94aaff"
       stroke-width="0.66"
       stroke-miterlimit="10"
       id="path166" />
    <path
       d="M 668.008,107.078 V 53.3101 l 46.57,-26.8804 46.578,26.8804 v 53.7679 l -46.578,26.887 z"
       stroke="#94aaff"
       stroke-width="0.66"
       stroke-miterlimit="10"
       id="path168" />
    <path
       d="M 574.859,53.3124 V -0.448397 l 46.578,-26.887503 46.578,26.887503"
       stroke="#94aaff"
       stroke-width="0.66"
       stroke-miterlimit="10"
       id="path170" />
    <path
       d="M 854.305,-0.453125 V 53.3076 L 807.727,80.1951 761.156,53.3076 V -0.453125"
       stroke="#94aaff"
       stroke-width="0.66"
       stroke-miterlimit="10"
       id="path172" />
    <path
       d="M 761.156,-0.453125 V 53.3076 l -46.578,26.8875"
       stroke="#94aaff"
       stroke-width="0.66"
       stroke-miterlimit="10"
       id="path174" />
    <path
       d="M 574.859,-54.2188 V -0.450872 L 621.437,26.4295 668.015,-0.450872 V -54.2188"
       stroke="#94aaff"
       stroke-width="0.66"
       stroke-miterlimit="10"
       id="path176" />
    <path
       d="m 1552.98,-27.3359 v 53.7678 l -46.57,26.8805"
       stroke="#94aaff"
       stroke-width="0.66"
       stroke-miterlimit="10"
       id="path178" />
    <path
       d="m 900.812,-81.1094 46.571,26.8875 V -0.454044 L 900.812,26.4263 854.234,-0.454044"
       stroke="#6685fa"
       stroke-width="3.6"
       stroke-miterlimit="10"
       id="path180" />
    <path
       d="m 1878.93,-107.984 -46.58,26.88 v 53.7678 l 46.58,26.88758 46.57,-26.88758"
       stroke="#6685fa"
       stroke-width="3.6"
       stroke-miterlimit="10"
       id="path182" />
    <path
       d="m 590.904,62.5638 v -18.527 l -16.05,-9.2634 -16.049,9.2634 v 18.527 l 16.049,9.2635 z"
       fill="#98aeff"
       id="path184" />
  </g>
  <defs
     id="defs191">
    <clipPath
       id="clip0_1905_11554">
      <rect
         width="1920"
         height="376"
         fill="#ffffff"
         id="rect188"
         x="0"
         y="0" />
    </clipPath>
  </defs>
</svg>
