<svg width="99" height="26" viewBox="0 0 99 26" fill="none" xmlns="http://www.w3.org/2000/svg">
<path d="M98.6163 4.50481C98.6053 4.46805 98.5942 4.43129 98.5796 4.39453C89.8713 4.39821 81.1667 4.39453 72.4622 4.39821C72.4401 4.42394 72.4254 4.44967 72.4217 4.48275C72.4217 11.2354 72.4217 17.9844 72.418 24.7371C72.4731 25.0973 72.6716 25.4244 72.9363 25.6708C72.9474 25.6744 72.9731 25.678 72.9841 25.6817C73.1201 25.825 73.315 25.895 73.4988 25.9611C73.6348 25.9538 73.7671 26.0126 73.9031 25.9979H84.7103C84.8132 25.9942 84.9198 26.0126 85.019 25.9722C85.0228 25.9576 85.0264 25.9317 85.0301 25.917C85.0338 25.8987 85.0374 25.8582 85.0411 25.8362C85.2727 24.5423 85.4969 23.2447 85.7433 21.9508L85.7653 21.7854C84.7655 21.7816 83.7619 21.7854 82.7621 21.7816C82.5195 21.7743 82.2696 21.7816 82.0269 21.7522C81.6116 21.7338 81.1925 21.7485 80.7772 21.7081C80.2625 21.7081 79.7516 21.6603 79.2369 21.6603C78.8326 21.6199 78.4246 21.6346 78.0165 21.6162C77.7519 21.5832 77.4799 21.5978 77.2116 21.5868C76.7742 21.539 76.3294 21.5721 75.8919 21.5243C75.4288 21.5281 74.9656 21.4876 74.5024 21.4765C74.5061 21.4728 74.5098 21.4581 74.5098 21.4544C74.6642 21.4581 74.8149 21.4471 74.9693 21.4435C75.3111 21.3993 75.6567 21.4287 75.9985 21.3809C76.3551 21.3809 76.708 21.3332 77.0646 21.3332C77.3807 21.289 77.7005 21.3148 78.0165 21.2706C78.3879 21.2706 78.7517 21.2229 79.1231 21.2192C79.4282 21.1787 79.7369 21.2008 80.042 21.1604C80.3986 21.164 80.7515 21.1089 81.1081 21.1126C81.4573 21.0721 81.8138 21.0831 82.163 21.0463C82.13 20.9104 82.1042 20.7744 82.0748 20.6383C82.0491 20.5538 81.9462 20.5722 81.88 20.5611C81.0823 20.4471 80.2883 20.3332 79.4943 20.223C79.5458 20.1825 79.6156 20.2008 79.6745 20.1935C80.292 20.1457 80.9059 20.0906 81.5234 20.0465C81.6631 20.0392 81.7991 20.0134 81.9388 20.0097C81.8763 19.8186 81.8396 19.6091 81.755 19.4326C80.4354 19.2305 79.1157 19.0504 77.7997 18.8334C78.1416 18.7783 78.4871 18.7526 78.829 18.7158L78.8584 18.7048C79.9502 18.5908 81.0456 18.4621 82.1373 18.3556C83.5231 18.3483 84.9053 18.3518 86.2911 18.3556C86.3352 18.3483 86.4124 18.3702 86.4198 18.3077C86.5337 17.7123 86.644 17.1168 86.7579 16.5212C86.9159 15.6942 87.1659 14.8781 87.5519 14.1246C88.1584 12.9115 89.1178 11.8823 90.2867 11.1986C91.3784 10.559 92.643 10.2502 93.9002 10.1914C94.3082 10.1546 94.7199 10.1657 95.1243 10.2171C95.3889 10.2796 95.661 10.3531 95.8705 10.5332C96.0433 10.6729 96.1462 10.8788 96.2234 11.0846C96.3925 11.5735 96.488 12.0808 96.5689 12.5918C96.5726 12.7976 96.6094 13.0292 96.4991 13.2167C96.3961 13.4005 96.1904 13.4887 95.9955 13.5438C95.286 13.7276 94.5435 13.5548 93.834 13.7276C93.2496 13.8526 92.7056 14.176 92.3343 14.6429C91.8969 15.1869 91.6652 15.8632 91.5366 16.5397C91.4374 17.1425 91.3123 17.7454 91.2131 18.3519C91.9115 18.3556 92.6137 18.3482 93.3157 18.3556C93.5951 18.3556 93.8818 18.51 93.9958 18.7746C94.1428 19.1128 94.1097 19.4952 94.0619 19.8517C94.0031 20.2524 93.9075 20.6493 93.7274 21.0169C93.5766 21.3294 93.3268 21.6161 92.9849 21.7264C92.8084 21.7963 92.6173 21.7816 92.4298 21.7816C91.8122 21.7816 91.1946 21.7889 90.5772 21.7816C90.4779 22.2337 90.4117 22.6969 90.3235 23.1564C90.1619 24.0496 90.0038 24.9465 89.842 25.8435C89.8383 25.8729 89.8346 25.9354 89.8346 25.9684C90.125 25.9831 90.4154 25.9684 90.7058 25.9758C92.8599 25.9758 95.0177 25.972 97.1754 25.9758C97.407 25.9831 97.6423 25.928 97.8445 25.814C97.9658 25.7699 98.0393 25.6633 98.1459 25.6045C98.2488 25.5457 98.2782 25.4245 98.3664 25.3472C98.462 25.1781 98.5613 25.0017 98.5686 24.8031C98.5796 24.8031 98.6091 24.7995 98.6238 24.7958C98.6126 18.0322 98.6237 11.2685 98.6163 4.50481Z" fill="url(#paint0_linear_5361_58847)" stroke="#FCD109" stroke-width="0.0112452"/>
<path d="M75.8443 0.0566551C76.1568 -0.0425948 76.4839 0.0235718 76.8038 0.00151627C82.8066 0.00519219 88.8094 0.00151627 94.8121 0.00151627C95.1686 -0.0131874 95.4811 0.188988 95.8119 0.291914C96.0766 0.398516 96.3523 0.483062 96.617 0.597015C96.6721 0.619071 96.7125 0.666858 96.7529 0.707293C96.7492 1.19251 96.7529 1.68141 96.7529 2.17031C96.7566 2.29897 96.7345 2.4313 96.7786 2.55628C96.8559 2.56731 96.8963 2.62612 96.9478 2.67391C97.1904 2.78419 97.3962 2.96431 97.6167 3.11135C97.9476 3.3466 98.3005 3.55246 98.6239 3.79507C98.6386 3.89064 98.6276 3.98989 98.5982 4.07811C98.5652 4.18104 98.5872 4.29132 98.5762 4.39424C89.8679 4.39792 81.1633 4.39424 72.4587 4.39792C72.4404 4.27661 72.4734 4.15531 72.422 4.04135C72.4146 3.94578 72.3815 3.8208 72.4734 3.75463C72.841 3.49732 73.2307 3.26573 73.5908 2.99372C73.8152 2.85036 74.032 2.70332 74.2488 2.55628C74.2929 2.48276 74.2782 2.39086 74.2782 2.30999C74.2782 1.77699 74.2782 1.24398 74.2819 0.710969C74.4069 0.549229 74.6239 0.530849 74.7966 0.449979C75.1459 0.317645 75.4988 0.188988 75.8443 0.0566551ZM75.8664 0.119146C75.3959 0.299266 74.9217 0.472034 74.4512 0.652154C74.3887 0.663182 74.3555 0.718321 74.3225 0.766108C74.3262 0.795515 74.3299 0.846978 74.3299 0.876386C74.3261 1.3175 74.3299 1.75861 74.3261 2.19972C74.3299 2.30999 74.3151 2.42027 74.3555 2.51952C74.3077 2.56731 74.2563 2.6151 74.1974 2.65186C73.6644 2.99739 73.1498 3.37234 72.6168 3.7142C72.5249 3.76934 72.422 3.84285 72.4514 3.96416C72.433 4.03033 72.4661 4.08546 72.5359 4.06708C73.6902 4.05973 74.8407 4.07444 75.995 4.05606C77.7117 4.05606 79.4247 4.05973 81.1413 4.05606L81.1671 4.04503C81.2443 4.06341 81.3214 4.05606 81.4023 4.05606C84.5121 4.05606 87.6219 4.05973 90.7354 4.05606C91.7132 4.05973 92.6947 4.05606 93.6761 4.05606C95.2935 4.05606 96.9146 4.07076 98.532 4.06341C98.5798 4.05238 98.5945 4.0193 98.5762 3.96048C98.5724 3.90167 98.5945 3.8208 98.532 3.78404C98.2747 3.66273 98.0542 3.47526 97.8079 3.32823C97.7197 3.25471 97.6057 3.21427 97.5395 3.11502C97.2859 2.97166 97.0506 2.79522 96.8006 2.63715C96.7528 2.60774 96.7161 2.55996 96.6757 2.51952C96.6978 2.44233 96.7051 2.35778 96.7051 2.27691C96.7014 1.81007 96.7051 1.34323 96.7014 0.876386C96.7125 0.802867 96.7087 0.718321 96.6425 0.670534C96.2014 0.512469 95.7641 0.343377 95.3266 0.181636C95.1906 0.11547 95.0398 0.0787106 94.8928 0.0566551H76.1052C76.0245 0.060331 75.9473 0.100766 75.8664 0.119146Z" fill="#F8F3B5" stroke="#F8F3B5" stroke-width="0.0112452"/>
<path d="M74.3319 0.875C74.6554 1.01101 75.0008 1.0882 75.328 1.22054C75.5045 1.29038 75.5596 1.48153 75.6368 1.63592C75.5596 1.71311 75.4677 1.7756 75.3758 1.83442C75.0376 2.06232 74.692 2.28288 74.3575 2.51814C74.3171 2.41889 74.3319 2.30861 74.3281 2.19833C74.3319 1.75722 74.3282 1.31611 74.3319 0.875ZM95.7073 1.22054C96.0344 1.09188 96.3763 1.00366 96.7035 0.875C96.7072 1.34184 96.7035 1.80868 96.7072 2.27553C96.7072 2.3564 96.6998 2.44094 96.6778 2.51814C96.3911 2.31964 96.1007 2.13216 95.814 1.93734C95.6743 1.83442 95.5199 1.75722 95.3949 1.63224C95.4721 1.47785 95.5309 1.29038 95.7073 1.22054Z" fill="#F7B402" stroke="#F7B402" stroke-width="0.0112452"/>
<path d="M79.9422 1.37345C80.3465 1.27788 80.7986 1.63812 80.7656 2.06085C80.7692 2.47623 80.3317 2.81441 79.9311 2.71884C79.7694 2.6637 79.6149 2.57915 79.5158 2.43579C79.3871 2.24097 79.3576 1.97998 79.4606 1.76677C79.5341 1.56092 79.7326 1.42124 79.9422 1.37345ZM90.4296 1.60503C90.5987 1.41756 90.867 1.31096 91.117 1.37713C91.3044 1.43227 91.4882 1.55357 91.5691 1.73737C91.7308 2.0535 91.6059 2.4799 91.2897 2.64532C91.0103 2.79971 90.6575 2.72619 90.4443 2.50196C90.2274 2.25567 90.2126 1.85132 90.4296 1.60503Z" fill="#BDA727" stroke="#BDA727" stroke-width="0.0112452"/>
<path d="M75.3767 1.83499C75.4686 1.77617 75.5605 1.71368 75.6378 1.63649L75.6634 1.66222C75.6891 1.85337 75.6708 2.04819 75.6781 2.23934C75.6671 2.81278 75.6891 3.3899 75.6634 3.96335C74.5937 3.96335 73.5241 3.95599 72.4543 3.96335C72.4249 3.84204 72.5279 3.76852 72.6198 3.71338C73.1528 3.37152 73.6674 2.99658 74.2004 2.65104C74.2593 2.61428 74.3107 2.5665 74.3585 2.51871C74.693 2.28345 75.0385 2.0629 75.3767 1.83499ZM95.3589 1.76147C95.3589 1.71368 95.37 1.67325 95.3957 1.63281C95.5207 1.75779 95.6751 1.83499 95.8147 1.93791C96.1015 2.13274 96.3919 2.32021 96.6786 2.51871C96.719 2.55914 96.7558 2.60693 96.8035 2.63634C97.0535 2.7944 97.2887 2.97085 97.5424 3.11421C97.6086 3.21346 97.7225 3.25389 97.8108 3.32741C98.0571 3.47445 98.2776 3.66192 98.5349 3.78323C98.5974 3.81999 98.5754 3.90086 98.579 3.95967C97.5093 3.96335 96.4433 3.95599 95.3736 3.96335C95.3553 3.81631 95.3663 3.66927 95.3626 3.52591C95.3627 2.93776 95.3553 2.34962 95.3589 1.76147Z" fill="#F7E62D" stroke="#F7E62D" stroke-width="0.0112452"/>
<path d="M98.5791 3.96047C97.5094 3.96414 96.4434 3.95679 95.3737 3.96414C95.3554 3.81711 95.3664 3.67007 95.3627 3.52671C95.3627 2.93856 95.3554 2.35041 95.359 1.76227C95.359 1.71448 95.3701 1.67405 95.3957 1.63361C95.473 1.47922 95.5317 1.29175 95.7082 1.22191C96.0353 1.09325 96.3772 1.00503 96.7044 0.876371C96.7155 0.802853 96.7118 0.718306 96.6455 0.670519C96.2044 0.512455 95.7671 0.343362 95.3296 0.181622C95.1935 0.115455 95.0428 0.0786961 94.8958 0.0566406H76.1082C76.0273 0.0603165 75.9501 0.100752 75.8692 0.119131C75.3987 0.299251 74.9245 0.47202 74.454 0.65214C74.3915 0.663168 74.3584 0.718306 74.3253 0.766093C74.329 0.795501 74.3327 0.846964 74.3327 0.876371C74.6562 1.01238 75.0016 1.08957 75.3289 1.22191C75.5053 1.29175 75.5605 1.4829 75.6377 1.63729L75.6633 1.66302C75.689 1.85417 75.6707 2.04899 75.678 2.24014C75.667 2.81358 75.689 3.3907 75.6633 3.96414C74.5936 3.96414 73.524 3.95679 72.4542 3.96414C72.4358 4.03031 72.4689 4.08545 72.5388 4.06707C73.693 4.05972 74.8436 4.07442 75.9979 4.05604C77.7145 4.05604 79.4275 4.05972 81.1442 4.05604L81.1699 4.04501C81.2471 4.06339 81.3242 4.05604 81.4051 4.05604C84.5149 4.05604 87.6248 4.05972 90.7382 4.05604C91.7161 4.05972 92.6975 4.05604 93.679 4.05604C95.2964 4.05604 96.9175 4.07075 98.5349 4.06339C98.5828 4.05237 98.5975 4.01928 98.5791 3.96047ZM79.4607 1.76594C79.5342 1.56009 79.7326 1.42041 79.9422 1.37262C80.3466 1.27705 80.7987 1.63729 80.7656 2.06002C80.7693 2.4754 80.3318 2.81358 79.9312 2.71801C79.7695 2.66287 79.615 2.57832 79.5158 2.43496C79.3872 2.24014 79.3578 1.97915 79.4607 1.76594ZM90.4296 1.6042C90.5987 1.41673 90.8671 1.31013 91.117 1.3763C91.3045 1.43143 91.4883 1.55274 91.5692 1.73654C91.7309 2.05267 91.6059 2.47907 91.2898 2.64449C91.0104 2.79888 90.6575 2.72536 90.4443 2.50113C90.2275 2.25484 90.2127 1.85049 90.4296 1.6042Z" fill="url(#paint1_radial_5361_58847)" stroke="#FCD109" stroke-width="0.0112452"/>
<path d="M91.3659 5.57743C91.4173 5.58846 91.098 5.27064 91.1605 5.25593C91.2193 5.26328 91.4423 5.09018 91.7119 5.23141C91.9814 5.37264 91.9146 5.70314 91.884 5.8257C91.8476 5.97156 91.7547 6.06464 91.6812 6.13815C91.6408 6.17124 91.5501 6.2227 91.495 6.21902C91.5281 6.0389 91.4215 6.0095 91.4141 5.8257L91.3659 5.57743Z" fill="url(#paint2_linear_5361_58847)" stroke="#FCD109" stroke-width="0.0112452"/>
<path d="M79.6134 5.77494C79.606 5.95874 79.4994 5.98814 79.5325 6.16826C79.4774 6.17194 79.3867 6.12048 79.3463 6.08739C79.2728 6.01388 79.18 5.9208 79.1435 5.77494C79.113 5.65242 79.0461 5.32192 79.3157 5.18066C79.5852 5.03939 79.8082 5.21249 79.867 5.20517C79.9295 5.21988 79.6102 5.5377 79.6616 5.52667L79.6134 5.77494Z" fill="url(#paint3_linear_5361_58847)" stroke="#FCD109" stroke-width="0.0112452"/>
<path d="M90.882 7.93082C90.9373 7.88281 90.9741 7.88281 91.0476 7.88281C90.6065 8.83855 90.0918 9.79429 89.3181 10.5384C89.2353 10.6123 89.1479 10.6808 89.0564 10.7435C88.9678 10.8083 88.881 10.8691 88.7947 10.931C88.7101 10.9897 88.6261 11.0487 88.5442 11.1103C88.3347 11.2243 88.1509 11.3824 87.9193 11.4522C87.4966 11.6543 87.0409 11.7904 86.5814 11.8859C86.4013 11.9154 86.2175 11.9594 86.0337 11.9631C85.8058 12.0293 85.5632 11.9815 85.3316 11.9962C85.2029 12.0183 85.0889 11.9447 84.964 11.9594C84.8555 11.9441 84.7474 11.9257 84.6398 11.9043C84.5307 11.882 84.4223 11.8562 84.3148 11.8271C82.6297 11.3014 80.9756 10.0148 80.4937 8.27485C80.4719 8.15767 80.461 8.03875 80.4609 7.91957C80.5124 8.0225 80.5657 8.12469 80.6209 8.22592C81.3064 9.72077 82.6665 10.8971 84.2733 11.2518C84.4037 11.3112 84.5449 11.2904 84.6699 11.3419C84.7839 11.3419 84.8941 11.3382 85.0044 11.3749C85.383 11.3823 85.7617 11.3786 86.1403 11.3786C86.1917 11.3823 86.2394 11.3566 86.291 11.3455C86.922 11.3241 87.5403 11.152 88.116 10.891C88.2312 10.8388 88.3446 10.7831 88.4561 10.7243C88.5537 10.6729 88.649 10.6172 88.7416 10.5574C88.8327 10.4988 88.9212 10.4363 89.0069 10.3701C89.6875 9.83105 90.2756 9.13263 90.675 8.32947C90.7511 8.18494 90.8206 8.0511 90.882 7.93082Z" fill="#BDA727" stroke="#BDA727" stroke-width="0.0112452"/>
<path d="M90.2859 11.1968C91.3776 10.5572 92.6422 10.2484 93.8994 10.1896C94.3074 10.1529 94.7191 10.1639 95.1235 10.2153C95.3881 10.2778 95.6602 10.3514 95.8697 10.5315C95.7631 10.5388 95.6602 10.491 95.5536 10.4763C95.2521 10.4175 94.9397 10.4396 94.6346 10.4322C93.7486 10.4322 92.8554 10.5021 91.9989 10.7447C91.5505 10.8807 91.102 11.0388 90.694 11.274C89.9882 11.6637 89.3523 12.1783 88.8377 12.7958C87.9187 13.8509 87.3783 15.1889 87.1173 16.5527C86.9923 17.2841 86.8489 18.0119 86.735 18.7471C86.5512 18.7655 86.3638 18.7545 86.18 18.7545C85.3713 18.7508 84.5626 18.7471 83.7539 18.7398C83.5811 18.7471 83.4119 18.7068 83.2392 18.7177C81.7689 18.725 80.2985 18.714 78.8281 18.714L78.8575 18.703C79.9493 18.5889 81.0447 18.4603 82.1365 18.3538C83.5222 18.3464 84.9044 18.35 86.2902 18.3538C86.3343 18.3464 86.4115 18.3684 86.4189 18.3059C86.5329 17.7105 86.6431 17.115 86.757 16.5194C86.9152 15.6925 87.1651 14.8764 87.5511 14.1228C88.1576 12.9098 89.117 11.8805 90.2859 11.1968Z" fill="#0D69B3" stroke="#0D69B3" stroke-width="0.0112452"/>
<path d="M91.9972 10.746C92.8537 10.5034 93.7469 10.4336 94.6328 10.4336C94.9379 10.4409 95.2504 10.4189 95.5518 10.4777C95.6583 10.4924 95.7612 10.5402 95.8679 10.5328C96.0407 10.6725 96.1436 10.8784 96.2208 11.0842C96.39 11.5731 96.4855 12.0804 96.5663 12.5914C96.57 12.7972 96.6068 13.0288 96.4965 13.2163C96.3936 13.4001 96.1878 13.4883 95.9929 13.5434C95.2834 13.7272 94.5409 13.5544 93.8314 13.7272C93.2471 13.8522 92.703 14.1756 92.3317 14.6425C91.8943 15.1865 91.6627 15.8628 91.534 16.5393C91.4348 17.1421 91.3098 17.745 91.2105 18.3515C91.1664 18.4875 91.1407 18.6346 91.1149 18.778C91.8096 18.789 92.5044 18.778 93.1992 18.7853C93.4638 18.778 93.7284 18.7926 93.9932 18.7742C94.1402 19.1124 94.1071 19.4948 94.0594 19.8513C94.0005 20.252 93.905 20.6489 93.7248 21.0165C93.5741 21.329 93.3242 21.6157 92.9823 21.726C92.8059 21.7959 92.6147 21.7812 92.4272 21.7812C91.8096 21.7812 91.1921 21.7885 90.5746 21.7812C90.4753 22.2333 90.4092 22.6965 90.3209 23.156C90.1593 24.0492 90.0012 24.9461 89.8394 25.8431C89.8357 25.8725 89.832 25.935 89.832 25.968V25.9717C88.2257 25.9717 86.623 25.9755 85.0166 25.9717C85.0203 25.9571 85.0239 25.9313 85.0276 25.9166C85.0314 25.8982 85.035 25.8578 85.0387 25.8357C85.0424 25.8652 85.046 25.9203 85.0497 25.946C85.149 25.9571 85.3291 26.0085 85.3548 25.8652C85.6048 24.5124 85.8364 23.1523 86.0937 21.7995C85.9945 21.7775 85.8915 21.7775 85.7886 21.7959C85.774 21.8473 85.7592 21.8988 85.7408 21.9502L85.7629 21.7848C84.7631 21.781 83.7595 21.7848 82.7597 21.781C82.517 21.7738 82.2671 21.781 82.0245 21.7517C81.6092 21.7333 81.1901 21.748 80.7747 21.7075C80.2601 21.7075 79.7491 21.6598 79.2345 21.6598C78.8302 21.6193 78.4221 21.634 78.0141 21.6156C77.7495 21.5826 77.4774 21.5973 77.2092 21.5863C76.7717 21.5384 76.3269 21.5716 75.8895 21.5237C75.4263 21.5275 74.9632 21.487 74.5 21.476C74.5037 21.4723 74.5074 21.4576 74.5074 21.4539C74.6617 21.4576 74.8125 21.4465 74.9668 21.4429C75.3087 21.3988 75.6542 21.4282 75.9961 21.3804C76.3527 21.3804 76.7056 21.3326 77.0621 21.3326C77.3782 21.2885 77.6981 21.3142 78.0141 21.2701C78.3854 21.2701 78.7493 21.2223 79.1206 21.2187C79.4257 21.1782 79.7345 21.2003 80.0396 21.1599C80.3962 21.1635 80.7491 21.1084 81.1056 21.112C81.4548 21.0715 81.8113 21.0826 82.1605 21.0458C82.1275 20.9099 82.1017 20.7739 82.0724 20.6378C82.0467 20.5532 81.9437 20.5716 81.8776 20.5606C81.0799 20.4466 80.2859 20.3327 79.4919 20.2224C79.5434 20.1819 79.6132 20.2003 79.672 20.193C80.2896 20.1451 80.9035 20.09 81.521 20.046C81.6607 20.0386 81.7967 20.0129 81.9364 20.0092C81.8739 19.818 81.8371 19.6085 81.7526 19.4321C80.433 19.2299 79.1133 19.0498 77.7973 18.8329C78.1392 18.7778 78.4847 18.752 78.8266 18.7153C80.2969 18.7153 81.7673 18.7263 83.2377 18.7189C83.4104 18.7079 83.5795 18.7484 83.7523 18.7411C84.561 18.7484 85.3697 18.7521 86.1784 18.7557C86.3622 18.7557 86.5497 18.7668 86.7335 18.7484C86.8474 18.0132 86.9908 17.2853 87.1158 16.5539C87.3768 15.1901 87.9171 13.8521 88.8361 12.7971C89.3507 12.1795 89.9867 11.6649 90.6924 11.2753C91.1002 11.0401 91.5487 10.8821 91.9972 10.746Z" fill="#107BD4" stroke="#107BD4" stroke-width="0.0112452"/>
<path d="M91.2109 18.3516C91.9094 18.3553 92.6115 18.3479 93.3136 18.3553C93.5929 18.3553 93.8797 18.5097 93.9936 18.7743C93.7289 18.7927 93.4643 18.778 93.1996 18.7854C92.5049 18.778 91.81 18.7891 91.1154 18.778C91.1411 18.6346 91.1667 18.4876 91.2109 18.3516ZM85.789 21.7959C85.8919 21.7776 85.9949 21.7776 86.0941 21.7996C85.8367 23.1524 85.6052 24.5125 85.3552 25.8653C85.3295 26.0085 85.1493 25.9572 85.0501 25.9461C85.0463 25.9204 85.0427 25.8653 85.0391 25.8358C85.2706 24.5419 85.4948 23.2443 85.7412 21.9504C85.7595 21.8988 85.7742 21.8474 85.789 21.7959Z" fill="#0D69B3" stroke="#0D69B3" stroke-width="0.0112452"/>
<path d="M91.5323 5.67949C91.5029 5.62435 91.4993 5.55819 91.4993 5.4957L91.4698 5.49937C91.4258 5.33763 91.2898 5.18324 91.1133 5.17589C90.9809 5.16486 90.8155 5.16854 90.7384 5.29352C90.5914 5.49202 90.6611 5.74566 90.6538 5.96989C90.6538 5.98459 90.6575 6.01032 90.6575 6.02503C90.6575 6.17574 90.6391 6.32278 90.6134 6.46981C90.5914 6.51393 90.5804 6.56171 90.5804 6.61318C90.5179 6.95871 90.3929 7.30057 90.2238 7.61303C90.1908 7.65714 90.1649 7.70492 90.154 7.75639C90.0437 7.94753 89.9114 8.12398 89.7754 8.30042C89.7533 8.3188 89.7349 8.34086 89.7165 8.36291C89.6209 8.48054 89.5181 8.57979 89.4114 8.68272C89.3857 8.69742 89.3673 8.7158 89.3452 8.73051C89.2203 8.85181 89.0806 8.96577 88.9298 9.05766C88.9115 9.06869 88.8931 9.08339 88.871 9.0981C87.9299 9.71933 86.7868 9.97664 85.6729 9.98767C84.7283 10.0171 83.7761 9.8149 82.9233 9.40688C82.9087 9.39952 82.8719 9.38482 82.8571 9.37747C82.7138 9.30027 82.5668 9.23411 82.4344 9.13853C82.405 9.12383 82.3756 9.10545 82.3425 9.09075C82.2065 9.00988 82.0778 8.92165 81.9565 8.81873C81.9161 8.78197 81.872 8.75256 81.8279 8.71948C81.6956 8.61288 81.5595 8.49892 81.4457 8.37027C81.4163 8.33718 81.3868 8.30778 81.3574 8.27837C80.9568 7.86299 80.6444 7.35571 80.479 6.80432C80.3208 6.36689 80.343 5.88902 80.3246 5.42953C80.1922 5.22735 79.9129 5.1134 79.6923 5.23838C79.6004 5.30455 79.5894 5.42585 79.5196 5.5104C79.4056 6.72345 79.9239 7.93283 80.751 8.8077C80.751 8.83711 80.7657 8.85549 80.7915 8.86652C80.9385 9.00252 81.0818 9.14221 81.2289 9.27454C81.2546 9.30027 81.284 9.32601 81.3171 9.34806C81.4641 9.46937 81.6222 9.57964 81.7766 9.6936C81.806 9.71565 81.8354 9.73403 81.8685 9.75241C82.0706 9.87004 82.2617 10.0097 82.4787 10.0906C82.4934 10.1016 82.5191 10.12 82.5338 10.1274C83.2322 10.4619 83.9858 10.6898 84.7577 10.7633C84.8423 10.7633 84.9268 10.7706 85.0114 10.789C85.379 10.8111 85.7466 10.8 86.1142 10.7927C87.2499 10.6934 88.4226 10.4178 89.371 9.74874L89.3821 9.76344C89.4115 9.73771 89.4372 9.71565 89.4666 9.6936C89.6174 9.58332 89.7644 9.46569 89.9115 9.34439C89.9445 9.31865 89.9812 9.28925 90.0144 9.25616C90.1761 9.07972 90.3636 8.91798 90.4996 8.7158L90.5217 8.72683C90.5327 8.70845 90.5511 8.67169 90.5622 8.65331C90.6871 8.48422 90.8011 8.30778 90.9114 8.13133C90.9187 8.1203 90.937 8.10192 90.9444 8.0909L90.9298 8.07619C90.9408 8.06149 90.9665 8.03208 90.9775 8.01738C91.1797 7.60567 91.3598 7.17559 91.4223 6.71978C91.4481 6.70875 91.4628 6.68669 91.4628 6.66096C91.4665 6.51393 91.5179 6.37424 91.5033 6.2272C91.536 6.04708 91.5397 5.86329 91.5323 5.67949Z" fill="white" stroke="white" stroke-width="0.0112452"/>
<mask id="mask0_5361_58847" style="mask-type:luminance" maskUnits="userSpaceOnUse" x="79" y="5" width="13" height="6">
<path d="M91.5362 5.67949C91.5068 5.62435 91.5032 5.55819 91.5032 5.4957L91.4737 5.49937C91.4297 5.33763 91.2937 5.18324 91.1172 5.17589C90.9848 5.16486 90.8194 5.16854 90.7423 5.29352C90.5953 5.49202 90.665 5.74566 90.6577 5.96989C90.6577 5.98459 90.6614 6.01032 90.6614 6.02503C90.6614 6.17574 90.643 6.32278 90.6173 6.46981C90.5953 6.51393 90.5843 6.56171 90.5843 6.61318C90.5218 6.95871 90.3968 7.30057 90.2277 7.61303C90.1947 7.65714 90.1689 7.70492 90.1579 7.75639C90.0476 7.94753 89.9153 8.12398 89.7793 8.30042C89.7572 8.3188 89.7388 8.34086 89.7204 8.36291C89.6248 8.48054 89.522 8.57979 89.4153 8.68272C89.3896 8.69742 89.3712 8.7158 89.3491 8.73051C89.2242 8.85181 89.0845 8.96577 88.9337 9.05766C88.9154 9.06869 88.897 9.08339 88.8749 9.0981C87.9338 9.71933 86.7907 9.97664 85.6768 9.98767C84.7322 10.0171 83.78 9.8149 82.9272 9.40688C82.9126 9.39952 82.8758 9.38482 82.8611 9.37747C82.7177 9.30027 82.5707 9.23411 82.4383 9.13853C82.4089 9.12383 82.3795 9.10545 82.3464 9.09075C82.2104 9.00988 82.0818 8.92165 81.9604 8.81873C81.92 8.78197 81.8759 8.75256 81.8318 8.71948C81.6995 8.61288 81.5634 8.49892 81.4496 8.37027C81.4202 8.33718 81.3907 8.30778 81.3613 8.27837C80.9607 7.86299 80.6483 7.35571 80.4829 6.80432C80.3247 6.36689 80.3469 5.88902 80.3285 5.42953C80.1961 5.22735 79.9168 5.1134 79.6962 5.23838C79.6043 5.30455 79.5933 5.42585 79.5235 5.5104C79.4095 6.72345 79.9278 7.93283 80.7549 8.8077C80.7549 8.83711 80.7696 8.85549 80.7954 8.86652C80.9424 9.00252 81.0857 9.14221 81.2328 9.27454C81.2585 9.30027 81.2879 9.32601 81.321 9.34806C81.468 9.46937 81.6261 9.57964 81.7805 9.6936C81.8099 9.71565 81.8393 9.73403 81.8724 9.75241C82.0746 9.87004 82.2656 10.0097 82.4826 10.0906C82.4973 10.1016 82.523 10.12 82.5377 10.1274C83.2361 10.4619 83.9897 10.6898 84.7616 10.7633C84.8462 10.7633 84.9307 10.7706 85.0153 10.789C85.3829 10.8111 85.7505 10.8 86.1181 10.7927C87.2538 10.6934 88.4265 10.4178 89.3749 9.74874L89.386 9.76344C89.4154 9.73771 89.4411 9.71565 89.4705 9.6936C89.6213 9.58332 89.7683 9.46569 89.9154 9.34439C89.9484 9.31865 89.9851 9.28925 90.0183 9.25616C90.18 9.07972 90.3675 8.91798 90.5035 8.7158L90.5256 8.72683C90.5366 8.70845 90.555 8.67169 90.5661 8.65331C90.691 8.48422 90.805 8.30778 90.9153 8.13133C90.9226 8.1203 90.9409 8.10192 90.9483 8.0909L90.9337 8.07619C90.9447 8.06149 90.9704 8.03208 90.9815 8.01738C91.1836 7.60567 91.3637 7.17559 91.4262 6.71978C91.452 6.70875 91.4667 6.68669 91.4667 6.66096C91.4704 6.51393 91.5219 6.37424 91.5072 6.2272C91.5399 6.04708 91.5436 5.86329 91.5362 5.67949Z" fill="white"/>
</mask>
<g mask="url(#mask0_5361_58847)">
<path d="M79.2422 5.55526C79.5402 5.64874 80.2247 5.41356 80.4185 5.62878M79.4137 6.46197C79.6993 6.36261 80.3116 6.12735 80.5655 6.26593M79.7078 7.36871C79.8458 7.41341 80.1179 7.1709 80.2531 7.09985C80.4542 6.99409 80.6605 6.91304 80.8841 6.8786M80.1489 8.32445C80.2913 8.12212 80.4617 7.9541 80.6674 7.81037C80.8712 7.66796 81.429 7.28747 81.6683 7.41771M80.5655 9.01063C80.7271 8.88216 80.7929 8.65491 80.9626 8.51993C81.1679 8.35665 81.4823 8.32735 81.6928 8.22641M81.2578 9.51908C81.3061 9.16369 81.667 8.73483 82.0114 8.76552M81.7908 10.0154C81.9728 9.99714 82.1267 9.58984 82.2498 9.45181C82.4341 9.24504 82.6251 9.18145 82.869 9.10863M82.8446 10.4565C82.8328 10.1993 83.0985 9.46196 83.4082 9.50074M83.6288 10.7016C83.6159 10.3976 83.773 9.48346 84.1434 9.45174M84.4375 11.1917C84.3672 10.7667 84.3718 10.1518 84.707 9.84381M85.4423 11.2897C85.4049 10.9354 85.0528 10.2192 85.4423 9.94185M86.5205 11.0446C86.3524 10.8498 86.2547 10.0811 86.3244 9.86833M87.5497 10.8731C87.4201 10.6377 87.2595 10.4167 87.2104 10.1434C87.181 9.98015 87.2325 9.74754 87.2066 9.62326M88.4075 10.5055C88.1263 10.3216 88.0483 9.64564 88.1379 9.3537M89.2407 10.1379C89.0407 9.70887 88.8274 9.37624 88.824 8.88807M90.0494 9.3537C89.7386 9.14465 89.342 8.76464 89.3877 8.34896M90.9071 8.69204C90.4349 8.58742 89.8683 8.16495 89.5838 7.7853M91.2992 7.88333C90.9586 7.81029 89.8331 7.37121 89.9023 6.9276M91.6668 7.02563C91.1922 6.85165 90.5018 6.69524 90.1229 6.36397M91.9118 6.24141C91.6129 6.267 91.1846 6.12227 90.8808 6.06986C90.5434 6.01167 90.2306 5.89797 89.9023 5.82478M91.6177 5.48175C91.0412 5.51626 90.5002 5.31898 89.9758 5.13867" stroke="#D1D1D1" stroke-width="0.239259"/>
</g>
<path d="M17.8389 7.24894C18.3717 7.16855 18.9847 7.1183 19.437 7.44994C19.7184 7.66094 19.8189 8.04283 19.7987 8.38462C19.8189 8.9474 19.5576 9.55044 19.0551 9.84194C18.6129 10.0832 18.0803 10.1031 17.5877 10.0529C17.2561 10.0128 16.9244 9.83194 16.7536 9.5304C16.3716 8.65601 16.844 7.4198 17.8389 7.24894ZM1.89907 7.88212C1.92917 7.58059 2.20057 7.30923 2.5121 7.31934C4.83381 7.31934 7.14538 7.32934 9.45698 7.31934C9.70823 7.29923 9.97962 7.40973 10.1002 7.63084C10.271 7.93237 10.1203 8.26401 10.1002 8.57562C10.0299 8.99765 10.0499 9.56055 9.55752 9.72129C7.86902 9.77154 6.18052 9.72129 4.49203 9.7414C4.33124 10.8067 4.18049 11.862 4.01964 12.9172C4.01964 12.9575 4.02974 13.048 4.02974 13.0881C5.26592 13.0781 6.5021 13.0881 7.73827 13.0781C8.08002 13.058 8.44177 13.3495 8.41163 13.7112C8.38152 14.0831 8.30109 14.4449 8.25088 14.8168C8.21059 15.068 8.00963 15.2992 7.7483 15.3495C6.37138 15.3796 4.97434 15.3193 3.59757 15.3796C3.37639 16.8972 3.11506 18.4147 2.88388 19.9324C2.85381 20.2339 2.61253 20.4952 2.31103 20.5052C1.73822 20.5153 1.16527 20.5153 0.592464 20.5052C0.220608 20.5153 -0.0809301 20.1031 0.0195328 19.7514C0.632787 15.7917 1.26593 11.842 1.89907 7.88212ZM12.1102 7.33933C12.6329 7.29919 13.1655 7.32934 13.6882 7.31934C14.0098 7.29923 14.3314 7.55044 14.3615 7.88212C14.3615 8.14337 14.2911 8.40473 14.261 8.66601C13.8389 11.3595 13.4067 14.0531 12.9845 16.7466C12.9243 17.1787 12.8137 17.641 12.9444 18.0832C13.0952 18.5254 13.7684 18.3345 13.9293 18.7967C14.0298 19.1686 13.9192 19.5606 13.889 19.9425C13.8589 20.445 13.286 20.5555 12.8942 20.6662C12.0399 20.827 11.0046 20.7064 10.3915 20.0028C9.94934 19.4903 9.91916 18.7666 10.0097 18.1235C10.5423 14.7064 11.075 11.2893 11.6178 7.86201C11.6479 7.61073 11.8489 7.37959 12.1102 7.33933ZM32.0602 7.88212C32.0903 7.58059 32.3617 7.31934 32.6632 7.31934H34.1909C34.5728 7.30923 34.8844 7.72134 34.7939 8.08308C34.4421 10.3143 34.0804 12.5455 33.7286 14.7766C34.2613 14.6962 34.8643 14.5957 35.2362 14.1636C35.8592 13.46 36.3719 12.646 36.7537 11.7918C36.8843 11.46 36.9547 10.9777 37.3869 10.9173C37.9598 10.8972 38.5427 10.9073 39.1156 10.9173C39.5076 10.9073 39.799 11.3495 39.6683 11.7113C39.5176 12.244 39.2663 12.7364 39.0051 13.2088C38.4221 14.1536 37.779 15.0882 36.9346 15.8319C37.3065 16.9475 37.7789 18.033 38.191 19.1285C38.3115 19.4903 38.6031 19.9123 38.3317 20.2642C38.02 20.6863 37.4371 20.4751 37.005 20.5254C36.5527 20.4751 35.8995 20.7063 35.6482 20.1938C35.1758 19.0982 34.7839 17.9727 34.3014 16.8772C34.02 16.8871 33.7286 16.8973 33.4471 16.8671C33.4271 16.9074 33.3869 16.9877 33.3667 17.028C33.2159 18.033 33.0552 19.038 32.8943 20.043C32.834 20.2842 32.643 20.4953 32.3818 20.5154C31.8491 20.5355 31.3064 20.5254 30.7637 20.5254C30.5325 20.5254 30.3215 20.3747 30.2209 20.1737C30.1204 19.9726 30.1807 19.7415 30.211 19.5204C30.834 15.641 31.4471 11.7615 32.0602 7.88212ZM59.9901 8.97762C60.0605 8.69612 60.3318 8.50523 60.6133 8.51522C61.0153 8.52533 61.4274 8.50523 61.8394 8.52533C62.1711 8.53533 62.4324 8.86701 62.3921 9.18862C62.3318 9.76151 62.1911 10.3344 62.1509 10.9072C62.5429 10.9072 62.9449 10.8972 63.3369 10.9072C63.6887 10.9072 63.9802 11.269 63.9198 11.6107C63.8695 11.9224 63.7991 12.2239 63.7489 12.5353C63.6987 12.7967 63.4776 13.0078 63.2264 13.0479C62.7439 13.0781 62.2716 13.0278 61.7992 13.0781C61.5982 14.4247 61.3771 15.7715 61.166 17.1183C61.1358 17.4299 61.1158 17.7816 61.2967 18.053C61.5681 18.3847 62.0403 18.264 62.4223 18.3043C62.7238 18.3947 62.9148 18.7264 62.8645 19.028C62.8142 19.3696 62.8042 19.7113 62.7238 20.0429C62.6032 20.4148 62.171 20.4852 61.8393 20.5756C60.9248 20.8169 59.8695 20.8169 59.0555 20.2842C58.3017 19.7716 58.1811 18.7766 58.2614 17.9323C58.4724 16.3042 58.8042 14.6861 58.9851 13.0479C58.7037 13.0579 58.3619 13.0981 58.151 12.8469C57.9097 12.5956 58.0303 12.2238 58.0705 11.9121C58.1309 11.5805 58.1208 11.1483 58.4826 10.9674C58.774 10.8568 59.1058 10.9373 59.4173 10.897C59.6082 10.2539 59.7891 9.61076 59.9901 8.97762ZM54.3117 12.2339C54.9449 11.6007 55.7086 11.0781 56.583 10.8168C56.9649 10.6459 57.4574 10.9676 57.4474 11.3897C57.3771 11.9425 57.2464 12.4851 57.1559 13.0278C57.1156 13.2992 56.8845 13.5304 56.6131 13.5605C55.6282 13.7313 54.774 14.3242 54.0905 15.0278C53.9197 15.239 53.6684 15.4399 53.6383 15.7314C53.4273 17.1384 53.2061 18.5455 52.985 19.9525C52.9549 20.2539 52.6935 20.5455 52.382 20.5254H50.8543C50.5026 20.5455 50.191 20.1938 50.2312 19.842C50.6734 17.058 51.1157 14.2842 51.5478 11.5001C51.5679 11.2188 51.769 10.9474 52.0604 10.9173C52.4322 10.8971 52.8041 10.9072 53.186 10.9072C53.4875 10.9072 53.7689 11.1785 53.7689 11.4901C53.7689 11.9223 53.7287 12.3645 53.7187 12.8067C53.9599 12.656 54.1107 12.4148 54.3117 12.2339ZM16.7434 10.9575C17.2861 10.847 17.849 10.9374 18.3917 10.9072C18.7033 10.8671 19.0349 11.068 19.0851 11.3796C19.1254 11.661 19.0449 11.9324 19.0147 12.2038C18.6027 14.7868 18.1906 17.3697 17.7886 19.9526C17.7585 20.2442 17.5174 20.5356 17.2057 20.5254C16.663 20.5254 16.1203 20.5356 15.5676 20.5155C15.2258 20.4752 14.9745 20.0833 15.065 19.7516C15.4972 17.0682 15.9093 14.3948 16.3415 11.7113C16.3616 11.4198 16.442 11.0781 16.7434 10.9575ZM49.2664 11.0882C47.7688 10.8067 46.2413 10.6057 44.7236 10.7565C43.3668 10.9274 41.9999 11.5405 41.1658 12.656C40.01 14.1234 39.618 16.0933 39.8793 17.9225C40.0201 18.7968 40.4019 19.6813 41.1156 20.224C41.7788 20.7366 42.6733 20.8068 43.4774 20.6762C44.6029 20.4551 45.5577 19.7316 46.3417 18.9275C46.3819 19.2692 46.3015 19.6109 46.3216 19.9426C46.3417 20.2541 46.6231 20.5455 46.9347 20.5254H47.9599C48.2614 20.5254 48.5126 20.2441 48.5328 19.9526C48.9649 17.2289 49.397 14.5153 49.8192 11.8018C49.8794 11.46 49.6081 11.1284 49.2664 11.0882ZM46.4423 15.8219C46.0402 16.5757 45.4774 17.2591 44.8442 17.8419C44.4824 18.1435 44.0201 18.4551 43.5277 18.3546C43.0452 18.2541 42.8141 17.7516 42.7036 17.3194C42.4523 16.1938 42.6834 14.9676 43.3166 13.9928C43.598 13.5404 44.0502 13.1988 44.5729 13.058C45.3065 12.8771 46.0805 12.9675 46.7941 13.1685L46.8342 13.2088C46.7438 14.0831 46.5729 14.9475 46.4423 15.8219ZM29.5376 14.3144C29.5275 13.3093 29.2562 12.254 28.5527 11.5002C28.0703 10.9676 27.3466 10.6962 26.6431 10.7062C25.4772 10.6661 24.3817 11.239 23.5275 12.0027C23.3365 12.1535 23.2058 12.3746 22.9948 12.4952C22.9948 12.1635 23.025 11.8319 23.0148 11.4902C23.025 11.1785 22.7335 10.9072 22.432 10.9072H21.4068C21.0852 10.9072 20.8239 11.1887 20.8038 11.5002C20.1706 15.5204 19.5275 19.5405 18.8942 23.5607C18.8039 23.9325 19.1255 24.3144 19.5074 24.3044C20.0702 24.2943 20.6431 24.3446 21.1958 24.2641C21.6381 24.1435 21.628 23.6309 21.6984 23.2591C21.8591 22.3746 21.9697 21.4902 22.0702 20.5957C24.0501 20.9776 26.3517 20.7164 27.8291 19.2188C29.035 17.9023 29.5978 16.0832 29.5376 14.3144ZM26.7235 15.3294C26.6632 16.254 26.3315 17.1887 25.6883 17.862C24.8542 18.6561 23.5877 18.5455 22.5626 18.2742C22.5426 18.244 22.5124 18.1837 22.5023 18.1536C22.6631 17.2792 22.7436 16.3947 22.9446 15.5304C23.5074 14.6059 24.1908 13.6711 25.1657 13.1586C25.5275 12.9878 26.0199 13.0279 26.2813 13.3596C26.7235 13.9124 26.7637 14.6561 26.7235 15.3294Z" fill="#107BD4" stroke="#107BD4" stroke-width="0.0120826"/>
<defs>
<linearGradient id="paint0_linear_5361_58847" x1="85.5209" y1="4.39449" x2="85.5209" y2="26.0003" gradientUnits="userSpaceOnUse">
<stop stop-color="#F7E830"/>
<stop offset="1" stop-color="#FDCB06"/>
</linearGradient>
<radialGradient id="paint1_radial_5361_58847" cx="0" cy="0" r="1" gradientUnits="userSpaceOnUse" gradientTransform="translate(85.4078 14.2486) scale(17.5738 17.5738)">
<stop offset="0.596" stop-color="#F29405"/>
<stop offset="0.736" stop-color="#F7D01E"/>
<stop offset="1" stop-color="#FDCB06"/>
</radialGradient>
<linearGradient id="paint2_linear_5361_58847" x1="91.5317" y1="5.1755" x2="91.5379" y2="6.19862" gradientUnits="userSpaceOnUse">
<stop stop-color="#FADA1C"/>
<stop offset="1" stop-color="#FDCB06"/>
</linearGradient>
<linearGradient id="paint3_linear_5361_58847" x1="79.4957" y1="5.12474" x2="79.4896" y2="6.14786" gradientUnits="userSpaceOnUse">
<stop stop-color="#FADA1C"/>
<stop offset="1" stop-color="#FDCB06"/>
</linearGradient>
</defs>
</svg>
