<svg width="92" height="30" viewBox="0 0 92 30" fill="none" xmlns="http://www.w3.org/2000/svg">
<path d="M39.0016 15.7877C39.0016 20.1039 35.6251 23.2844 31.4813 23.2844C27.3375 23.2844 23.9609 20.1039 23.9609 15.7877C23.9609 11.4411 27.3375 8.29102 31.4813 8.29102C35.6251 8.29102 39.0016 11.4411 39.0016 15.7877ZM35.7096 15.7877C35.7096 13.0905 33.7526 11.2451 31.4813 11.2451C29.21 11.2451 27.253 13.0905 27.253 15.7877C27.253 18.4579 29.21 20.3303 31.4813 20.3303C33.7526 20.3303 35.7096 18.4545 35.7096 15.7877Z" fill="#EA4335"/>
<path d="M55.2282 15.7877C55.2282 20.1039 51.8517 23.2844 47.7079 23.2844C43.5641 23.2844 40.1875 20.1039 40.1875 15.7877C40.1875 11.4445 43.5641 8.29102 47.7079 8.29102C51.8517 8.29102 55.2282 11.4411 55.2282 15.7877ZM51.9361 15.7877C51.9361 13.0905 49.9792 11.2451 47.7079 11.2451C45.4365 11.2451 43.4796 13.0905 43.4796 15.7877C43.4796 18.4579 45.4365 20.3303 47.7079 20.3303C49.9792 20.3303 51.9361 18.4545 51.9361 15.7877Z" fill="#FBBC05"/>
<path d="M70.7699 8.74393V22.2028C70.7699 27.7392 67.5049 30.0003 63.645 30.0003C60.0116 30.0003 57.8248 27.5702 57.0001 25.5828L59.8663 24.3896C60.3766 25.6098 61.6272 27.0496 63.6416 27.0496C66.1124 27.0496 67.6435 25.5253 67.6435 22.6557V21.5775H67.5286C66.7917 22.4867 65.3722 23.281 63.5808 23.281C59.8324 23.281 56.3984 20.016 56.3984 15.8147C56.3984 11.5831 59.8324 8.29102 63.5808 8.29102C65.3688 8.29102 66.7884 9.0853 67.5286 9.96746H67.6435V8.74731H70.7699V8.74393ZM67.8767 15.8147C67.8767 13.175 66.1158 11.2451 63.8749 11.2451C61.6035 11.2451 59.7006 13.175 59.7006 15.8147C59.7006 18.4274 61.6035 20.3303 63.8749 20.3303C66.1158 20.3303 67.8767 18.4274 67.8767 15.8147Z" fill="#4285F4"/>
<path d="M75.9219 0.853516V22.8231H72.7109V0.853516H75.9219Z" fill="#34A853"/>
<path d="M88.4348 18.2584L90.99 19.9619C90.1653 21.1821 88.1779 23.2844 84.7439 23.2844C80.4852 23.2844 77.3047 19.9923 77.3047 15.7877C77.3047 11.3296 80.5122 8.29102 84.3755 8.29102C88.2658 8.29102 90.1687 11.387 90.7906 13.0601L91.132 13.9118L81.1105 18.0624C81.8777 19.5665 83.0709 20.3337 84.7439 20.3337C86.4204 20.3337 87.5831 19.509 88.4348 18.2584ZM80.5697 15.5613L87.2687 12.7796C86.9003 11.8433 85.7917 11.191 84.487 11.191C82.814 11.191 80.4852 12.668 80.5697 15.5613Z" fill="#EA4335"/>
<path d="M11.8061 13.8374V10.6569H22.5239C22.6287 11.2112 22.6827 11.8669 22.6827 12.5767C22.6827 14.963 22.0304 17.9136 19.9281 20.016C17.8832 22.1453 15.2705 23.281 11.8095 23.281C5.39437 23.281 0 18.0556 0 11.6405C0 5.22538 5.39437 0 11.8095 0C15.3584 0 17.8866 1.39253 19.7861 3.20756L17.5419 5.45183C16.1797 4.17422 14.3343 3.18052 11.8061 3.18052C7.12152 3.18052 3.45767 6.9559 3.45767 11.6405C3.45767 16.3251 7.12152 20.1005 11.8061 20.1005C14.8447 20.1005 16.5752 18.8803 17.6838 17.7717C18.5829 16.8726 19.1744 15.5883 19.4076 13.8341L11.8061 13.8374Z" fill="#4285F4"/>
</svg>
