<svg width="77" height="30" viewBox="0 0 77 30" fill="none" xmlns="http://www.w3.org/2000/svg">
<path fill-rule="evenodd" clip-rule="evenodd" d="M0.000584162 3.06858L0 3.03178V0.0831451H2.94221V21.7102L2.94357 21.7776V24.6957H0V21.747L0.000584162 21.71V3.06858ZM29.9198 15.7323C29.9953 20.2056 32.7631 23.783 36.1019 23.723C39.4402 23.6631 42.0847 19.9883 42.0091 15.515C41.9332 11.0412 39.1654 7.46378 35.8266 7.52434C32.4883 7.58431 29.8436 11.2591 29.9198 15.7323ZM54.2827 10.3238C54.3596 10.4942 54.1771 10.0691 54.1771 10.0691L54.2827 10.3238ZM56.2881 28.843C56.4228 28.612 56.6107 28.2588 56.8343 27.8172L56.2881 28.843ZM56.461 8.78047C56.4966 8.87978 56.5377 8.98337 56.5839 9.09261L57.5748 11.5332L56.461 8.78047ZM44.1319 21.0659C45.9506 22.7267 47.5882 23.585 49.682 23.585C51.8253 23.6013 53.7308 22.5467 53.7308 20.5172C53.7308 18.8233 52.2381 17.8326 49.571 16.6981C47.3109 15.7142 45.6289 15.0243 44.7498 13.6002C44.8573 14.219 44.9134 14.8582 44.9134 15.5125C44.9134 21.0059 40.9528 25.4599 36.0669 25.4599C31.181 25.4599 27.2204 21.0059 27.2204 15.5125C27.2204 12.2005 28.6599 9.26688 30.8733 7.45891H24.8867V21.7102L24.8873 21.7671V24.6957H22.2282V21.8625C22.2301 21.8126 22.2307 21.762 22.2307 21.7102V7.45872H19.8863V5.66516H22.265C22.5722 2.04669 24.8004 0 27.8852 0C29.8855 0 30.9837 0.209907 31.6179 0.505102V2.95817C31.6082 3.14121 31.6082 3.25278 31.6082 3.25278C31.5805 3.24967 31.5149 3.2485 31.5149 3.2485C30.5522 2.35493 29.6028 1.69016 27.3845 1.69269C25.6177 1.69269 24.4489 3.13673 24.8571 5.66516H34.809C35.225 5.59873 35.6456 5.56533 36.0669 5.56527C39.6111 5.56527 42.669 7.90891 44.0807 11.2939C44.0675 11.1062 44.0613 10.9101 44.0613 10.7053C44.0613 7.17346 47.4595 5.67139 50.9894 5.67899C51.1243 5.67821 51.2565 5.67899 51.3866 5.6821C52.6289 5.66205 54.3989 6.06959 55.4796 6.35583L57.5748 11.5332L60.569 18.88L60.9204 20.06L61.3118 18.88L65.0983 9.44972C65.797 6.85334 68.5622 5.72942 71.6164 5.73565C73.1346 5.72883 74.256 5.91284 75.6007 6.38874V9.24079C73.945 8.03022 72.7594 7.3267 70.8807 7.3267C69.2295 7.3267 67.2449 8.06215 67.2449 10.507C67.213 12.3444 68.3087 12.6801 71.5239 14.2854C74.1666 15.4397 76.6047 16.7139 76.6191 19.6651C76.6191 24.5854 71.8006 25.4375 69.455 25.4451C67.361 25.4451 65.4418 24.925 64.3742 24.0315V20.7834L64.5459 20.9263C66.4507 22.7156 68.1338 23.6426 70.309 23.6426C72.4529 23.659 74.3576 22.6038 74.3576 20.574C74.3576 18.8804 72.8649 17.8896 70.1978 16.7552C67.6488 15.6453 65.9763 14.9097 65.2927 13.0711C64.2531 15.6213 59.4178 27.4679 58.2797 30H55.6724L56.8524 27.7837C57.506 26.4888 58.4569 24.4573 59.3016 22.5138L54.2827 10.3238C54.187 10.1091 54.0923 9.89411 53.9986 9.67852C53.6134 8.79566 53.2551 7.98037 52.1713 7.56971C51.5907 7.37304 50.9726 7.26984 50.2539 7.26984C48.6027 7.26984 46.4906 8.0053 46.4906 10.4502C46.4586 12.2876 47.6811 12.6233 50.8971 14.2277C53.5398 15.3828 55.9777 16.6571 55.9921 19.6082C55.9921 24.5286 51.1728 25.3801 48.8274 25.3883C46.9657 25.3883 45.2413 24.9768 44.1319 24.2575V21.0659ZM8.4331 5.84878L8.46581 8.0014L8.46386 8.14627L8.49249 8.14549C8.52695 8.05573 8.5731 7.97959 8.61672 7.92274C9.69741 6.75715 11.0599 5.59896 14.2975 5.59896C17.3966 5.59896 19.4026 8.24792 19.483 9.91549L19.4861 21.7102V24.6957H16.8304V21.179L16.8298 11.1379C16.8298 9.05892 15.0162 7.55569 12.796 7.55569C10.9504 7.55569 8.58186 9.22638 8.50319 10.9175V21.7133L8.50436 21.7926V24.6982H5.84722V8.32736L5.848 5.84859L8.4331 5.84878Z" fill="#3781C2"/>
</svg>
