<svg width="105" height="36" viewBox="0 0 105 36" fill="none" xmlns="http://www.w3.org/2000/svg">
<path d="M20.4087 11.0005C20.6262 11.0895 20.8697 11.0907 21.0881 11.0039C21.3065 10.9171 21.4828 10.7491 21.5799 10.535C21.8866 9.87668 21.976 9.13785 21.8352 8.42534C21.787 8.17823 21.6828 7.94547 21.5305 7.74501C21.3782 7.54455 21.1819 7.38175 20.9568 7.26914C20.9568 7.26914 20.0408 6.64599 19.3726 7.26914C18.7044 7.89229 18.847 8.81575 18.9221 9.57404C18.9892 9.93757 19.1688 10.2708 19.4356 10.5268C19.7023 10.7828 20.0427 10.9485 20.4087 11.0005Z" fill="#817DA8"/>
<path d="M63.2481 15.8492C64.2308 15.8492 65.0275 14.834 65.0275 13.5818C65.0275 12.3296 64.2308 11.3145 63.2481 11.3145C62.2654 11.3145 61.4688 12.3296 61.4688 13.5818C61.4688 14.834 62.2654 15.8492 63.2481 15.8492Z" fill="#817DA8"/>
<path d="M16.445 26.9834C17.8897 24.979 19.1893 22.874 20.3341 20.6844C20.3341 20.6844 20.7245 19.8961 20.8296 20.6844C20.8631 21.8112 20.6848 22.9343 20.304 23.9953C19.9362 25.084 19.3731 27.1186 19.3731 27.1186C19.3731 27.1186 18.9526 27.8018 19.6058 28.1246C20.259 28.4475 20.4692 27.5615 20.4692 27.5615C20.4692 27.5615 23.4723 21.3676 24.7186 10.9242C24.7186 10.9242 24.6135 1.60701 24.6135 1.04392C24.6135 0.480833 24.4483 -0.014683 23.9453 0.00033265C23.4423 0.0153483 23.3222 0.488341 23.3672 1.12651C23.3638 3.74247 23.2209 6.35641 22.9393 8.95717C22.684 10.1209 22.3387 11.2095 21.8206 11.5173C21.5989 11.6649 21.3592 11.7835 21.1074 11.8702C20.799 12.2394 20.4516 12.5742 20.0713 12.8687C19.7596 13.1888 19.3598 13.409 18.9226 13.5013C18.4854 13.5935 18.0307 13.5537 17.6162 13.3868C16.7378 12.9738 16.948 11.8852 16.9631 11.6375V11.3972C16.9631 11.3972 17.0832 10.8041 16.5351 10.7741C15.987 10.744 15.9045 10.9843 15.8894 11.5248C15.8744 12.0654 15.5666 15.091 16.7829 15.564C17.6865 15.8795 18.6238 16.0886 19.5758 16.1872L18.6748 18.7023C18.6748 18.7023 17.4511 21.4802 16.6778 22.8166C15.6385 24.5681 14.4664 26.2372 13.1716 27.8093L12.6836 28.3273C13.4344 28.4475 14.1852 28.5751 14.8684 28.7102C15.435 28.1735 15.9619 27.5964 16.445 26.9834Z" fill="#F68220"/>
<path d="M11.3109 29.7305L10.44 30.5788C10.44 30.5788 9.78678 31.3296 10.2748 31.7501C10.7628 32.1705 11.4685 31.6149 11.4685 31.6149C11.4685 31.6149 12.0917 31.1645 12.9701 30.4662C12.4663 30.1223 11.904 29.8729 11.3109 29.7305Z" fill="#F4AA40"/>
<path d="M25.3554 33.1634C22.4806 31.5608 19.4801 30.1948 16.3836 29.0791C15.9707 28.959 15.4526 28.8389 14.882 28.7188C14.2138 29.3869 13.5231 29.9876 12.9375 30.4681C14.6493 31.6543 15.5127 32.6679 16.9917 33.5688C18.4708 34.4697 20.573 35.5884 21.4514 35.7235C22.3298 35.8587 24.8674 36.2266 26.0537 35.7235C27.2399 35.2205 26.7444 34.0718 25.3554 33.1634Z" fill="#817DA8"/>
<path d="M12.6979 28.3352C11.0086 28.0724 9.1917 27.8547 7.81026 27.697C5.25009 27.4117 2.62235 27.4417 1.804 27.697C0.985648 27.9523 0.692843 28.5003 1.24091 28.8082C1.71076 28.9426 2.19437 29.0232 2.68243 29.0484C3.57586 29.1085 4.43924 29.2286 4.77709 29.6115C5.11494 29.9944 6.70661 30.0319 7.64508 29.7166C8.83599 29.4025 10.088 29.4025 11.2789 29.7166C11.7293 29.3112 12.2474 28.8007 12.6979 28.3352Z" fill="#817DA8"/>
<path d="M12.6975 28.3359C12.2471 28.8014 11.7365 29.312 11.3086 29.7324C11.8818 29.8862 12.4233 30.1404 12.9078 30.4832C13.4934 30.0027 14.1841 29.402 14.8523 28.7339C14.2216 28.5837 13.4709 28.4561 12.6975 28.3359Z" fill="#817DA8"/>
<path d="M30.8655 17.1856C30.8655 17.1856 29.0487 16.9453 28.4405 18.4769H28.1177V17.4258H25.2422V28.2746H28.5156V21.3749C28.5156 21.3749 28.3129 20.3614 29.6943 20.3614C31.0758 20.3614 30.8655 21.5401 30.8655 21.5401V28.2972H34.0113V19.2052C34.0113 19.2052 33.8236 17.1856 30.8655 17.1856Z" fill="#817DA8"/>
<path d="M39.2078 14.3105H36.2122L36.2948 17.5915L35.2812 17.5464V20.7447L36.2122 20.6697V28.2751H39.5757L39.5307 21.0676H40.7845V17.5464H39.2078V14.3105Z" fill="#817DA8"/>
<path d="M46.1075 25.8052C44.9513 25.8052 44.4257 25.0545 44.6059 23.6205H50.3944C50.3944 23.6205 50.7548 19.2884 48.5325 17.9521C47.7649 17.5274 46.9021 17.3047 46.0249 17.3047C45.1477 17.3047 44.2848 17.5274 43.5173 17.9521C43.0293 18.2374 40.7619 19.6563 41.0021 23.4553C41.2424 27.2542 43.6749 28.6357 46.0849 28.5606C48.495 28.4855 49.989 27.2618 50.417 24.8743H47.1586C47.1586 24.8743 47.2562 25.8052 46.1075 25.8052ZM46.1075 19.5362C47.3838 19.5362 47.609 21.293 47.609 21.293H44.651C44.651 21.293 44.8311 19.5362 46.1075 19.5362Z" fill="#817DA8"/>
<path d="M55.2735 11.0371H51.7148V28.5604H55.2735V11.0371Z" fill="#817DA8"/>
<path d="M60.1681 11.0371H56.6094V28.5604H60.1681V11.0371Z" fill="#817DA8"/>
<path d="M65.0275 17.291H61.4688V28.5603H65.0275V17.291Z" fill="#817DA8"/>
<path d="M72.882 12.7344H66.6055V28.8011H70.2092V23.3354H73.3625C73.3625 23.3354 75.9527 22.5846 76.0728 20.077C76.193 17.5694 76.8086 13.2224 72.882 12.7344ZM69.8789 19.7992V15.8501C72.6718 15.4822 72.882 17.6295 72.882 17.6295C72.9196 20.8278 69.8864 19.7992 69.8864 19.7992H69.8789Z" fill="#F68220"/>
<path d="M83.8045 18.4402C83.7595 18.763 83.4742 18.4402 83.4742 18.4402C83.1964 17.1488 81.4546 17.1488 81.4546 17.1488C78.4965 16.9086 77.04 20.3021 77.0025 21.6535C76.9649 23.0049 77.0025 27.3595 79.7954 28.2905C82.5883 29.2214 83.3165 27.885 83.4367 27.6823C83.5568 27.4796 83.8045 27.6823 83.8045 27.6823V28.2905H87.0404V17.4041H83.8045C83.8253 17.7492 83.8253 18.0951 83.8045 18.4402ZM82.0627 25.0321C81.6287 25.1167 81.1792 25.0658 80.7752 24.8863C80.3711 24.7067 80.0321 24.4072 79.804 24.0284C79.576 23.6495 79.4701 23.2097 79.5006 22.7686C79.531 22.3275 79.6965 21.9065 79.9745 21.5626C80.2524 21.2187 80.6294 20.9687 81.0544 20.8464C81.4793 20.7242 81.9315 20.7356 82.3497 20.8792C82.768 21.0227 83.1319 21.2915 83.3921 21.6489C83.6524 22.0064 83.7964 22.4352 83.8045 22.8773C83.8294 23.1357 83.803 23.3964 83.727 23.6445C83.651 23.8927 83.5269 24.1235 83.3616 24.3236C83.1963 24.5237 82.9932 24.6893 82.7639 24.8109C82.5346 24.9324 82.2836 25.0076 82.0252 25.0321H82.0627Z" fill="#F68220"/>
<path d="M94.8127 18.5979C94.7751 18.9208 94.4899 18.643 94.4899 18.643C94.2046 17.3441 92.4627 17.3441 92.4627 17.3441C89.5122 17.1039 88.0556 20.5049 88.0181 21.8488C87.9806 23.1927 88.0181 27.5548 90.8035 28.4857C93.5889 29.4167 94.3247 28.0878 94.4523 27.8851C94.5799 27.6824 94.8127 27.8851 94.8127 27.8851V28.4857H98.0711V17.6219H94.8352C94.8499 17.9474 94.8423 18.2735 94.8127 18.5979ZM93.0709 25.1898C92.6355 25.2652 92.1875 25.205 91.7875 25.0173C91.3875 24.8295 91.0549 24.5234 90.8347 24.1403C90.6146 23.7572 90.5175 23.3156 90.5567 22.8755C90.596 22.4354 90.7695 22.018 91.0539 21.6798C91.3383 21.3417 91.7198 21.0991 92.1466 20.985C92.5735 20.8709 93.0251 20.8908 93.4403 21.042C93.8555 21.1932 94.2142 21.4684 94.4677 21.8303C94.7212 22.1922 94.8574 22.6232 94.8577 23.0651C94.8994 23.5831 94.7352 24.0967 94.4007 24.4945C94.0662 24.8922 93.5884 25.1421 93.0709 25.1898Z" fill="#F68220"/>
<path d="M104.609 17.5913H103.032V14.3555H100.036L100.119 17.6289L99.1055 17.5913V20.7897L100.036 20.7071V28.3125H103.392L103.355 21.1125H104.609V17.5913Z" fill="#F68220"/>
</svg>
