<svg width="109" height="30" viewBox="0 0 109 30" fill="none" xmlns="http://www.w3.org/2000/svg">
<path d="M55.7164 12.568H58.0093V8.47752H59.6359V6.82422H54.0898V8.47752H55.7164V12.568Z" fill="#007DC5"/>
<path d="M61.3272 12.568L62.4959 9.13315L63.6628 12.568H65.9058L63.7074 6.82422H61.2826L59.0859 12.568H61.3272Z" fill="#007DC5"/>
<path d="M66.9821 12.568H69.2749V8.47752H70.9015V6.82422H65.3555V8.47752H66.9821V12.568Z" fill="#007DC5"/>
<path d="M72.5928 12.568L73.7615 9.13315L74.9284 12.568H77.1714L74.9748 6.82422H72.5482L70.3516 12.568H72.5928Z" fill="#007DC5"/>
<path d="M94.5969 16.6759C94.8802 17.3261 95.2543 18.0299 95.6267 18.657L97.1268 21.1833H98.2135V15.4395H97.2426V17.4437C97.2426 18.322 97.2622 19.0614 97.337 19.8239L97.3174 19.8293C97.0519 19.2057 96.7188 18.5376 96.3393 17.9052L94.8553 15.4395H93.6562V21.1833H94.6254V19.1291C94.6254 18.1866 94.6112 17.4277 94.5702 16.6812L94.5969 16.6759Z" fill="#007DC5"/>
<path d="M89.3895 19.5602H91.2139L91.7341 21.1833H92.8601L90.9947 15.4395H89.6603L87.8164 21.1833H88.9014L89.3895 19.5602ZM90.0042 17.3493C90.1057 17.0072 90.193 16.61 90.2768 16.2732H90.2946C90.3819 16.6064 90.4763 16.9983 90.585 17.3529L91.0375 18.7692H89.557L90.0042 17.3493Z" fill="#007DC5"/>
<path d="M72.2892 20.4041C71.7547 20.4041 71.2399 20.2331 70.9014 20.0371L70.668 20.9065C70.9815 21.0989 71.6122 21.2735 72.2197 21.2735C73.702 21.2735 74.3986 20.4718 74.3986 19.5472C74.3986 18.7223 73.9193 18.2199 72.9217 17.8404C72.1556 17.5482 71.8224 17.3398 71.8224 16.8998C71.8224 16.5613 72.1057 16.2085 72.772 16.2085C73.3118 16.2085 73.7127 16.3724 73.9193 16.4811L74.1706 15.6348C73.8712 15.4834 73.4152 15.3516 72.7934 15.3516C71.5481 15.3516 70.7606 16.0606 70.7606 17.0013C70.7606 17.8244 71.3663 18.3339 72.3159 18.6706C73.041 18.9343 73.3332 19.1909 73.3332 19.6238C73.3332 20.0906 72.9573 20.4041 72.2892 20.4041Z" fill="#007DC5"/>
<path d="M57.2094 16.2135C57.6779 16.2135 58.061 16.3168 58.3282 16.438L58.5563 15.6024C58.3425 15.4866 57.8561 15.3477 57.1648 15.3477C55.41 15.3477 54.0898 16.4879 54.0898 18.3763C54.0898 20.1241 55.1998 21.2714 57.0223 21.2714C57.7171 21.2714 58.2641 21.1342 58.5117 21.0095L58.3389 20.1829C58.0628 20.3076 57.6191 20.3913 57.1933 20.3913C55.9302 20.3913 55.1944 19.5896 55.1944 18.3229C55.1944 16.944 56.0371 16.2135 57.2094 16.2135Z" fill="#007DC5"/>
<path d="M86.5378 21.1833V16.3213H88.1929V15.4395H83.8477V16.3213H85.4885V21.1833H86.5378Z" fill="#007DC5"/>
<path d="M107.506 15.4395L106.814 16.911C106.619 17.3279 106.46 17.6842 106.317 18.0512H106.3C106.143 17.6629 105.993 17.3351 105.799 16.9128L105.115 15.4395H103.914L105.731 18.7924V21.1833H106.781V18.7639L108.689 15.4412H107.506V15.4395Z" fill="#007DC5"/>
<path d="M61.598 15.3457C59.9768 15.3457 58.8633 16.591 58.8633 18.3548C58.8633 20.0366 59.8895 21.2784 61.5143 21.2784H61.5232C63.0963 21.2784 64.2632 20.1773 64.2632 18.2532C64.2597 16.6106 63.2727 15.3457 61.598 15.3457ZM61.557 20.4375H61.5481C60.5451 20.4375 59.959 19.4718 59.9625 18.3298C59.9607 17.1843 60.513 16.1848 61.5606 16.1848C62.6082 16.1848 63.1462 17.2092 63.1462 18.2924C63.1444 19.4932 62.5707 20.4375 61.557 20.4375Z" fill="#007DC5"/>
<path d="M102.237 16.2135C102.705 16.2135 103.088 16.3168 103.356 16.438L103.584 15.6024C103.37 15.4866 102.883 15.3477 102.192 15.3477C100.437 15.3477 99.1172 16.4879 99.1172 18.3763C99.1172 20.1241 100.227 21.2714 102.05 21.2714C102.744 21.2714 103.291 21.136 103.539 21.0095L103.366 20.1829C103.09 20.3076 102.646 20.3913 102.221 20.3913C100.958 20.3913 100.222 19.5896 100.222 18.3229C100.222 16.944 101.064 16.2135 102.237 16.2135Z" fill="#007DC5"/>
<path d="M82.0689 15.4395H81.0195V21.1833H84.4312V20.3032H82.0689V15.4395Z" fill="#007DC5"/>
<path d="M79.8259 18.7213V15.4414H78.7765V18.7908C78.7765 19.9167 78.3222 20.4352 77.5668 20.4352C76.856 20.4352 76.3892 19.9132 76.3892 18.7908V15.4414H75.3398V18.7284C75.3398 20.5349 76.2039 21.2814 77.5276 21.2814C78.9155 21.2796 79.8259 20.4904 79.8259 18.7213Z" fill="#007DC5"/>
<path d="M69.7174 15.4395H68.7465V17.4437C68.7465 18.322 68.7661 19.0614 68.8409 19.8239L68.8213 19.8293C68.5558 19.2057 68.2227 18.5376 67.8432 17.9052L66.3592 15.4395H65.1602V21.1833H66.1311V19.1291C66.1311 18.1866 66.1169 17.4277 66.0759 16.683L66.1026 16.6777C66.3859 17.3279 66.76 18.0317 67.1324 18.6588L68.6325 21.185H69.7192V15.4395H69.7174Z" fill="#007DC5"/>
<path d="M74.2056 24.0547H73.1562V29.7985H74.2056V24.0547Z" fill="#007DC5"/>
<path d="M65.9441 27.1048V27.0816C66.4803 26.891 66.9792 26.3921 66.9792 25.6581C66.9792 25.17 66.801 24.7744 66.4892 24.5143C66.1044 24.1937 65.4417 24.0547 64.7308 24.0547C64.02 24.0547 63.5496 24.1046 63.1523 24.1776V29.7985H64.1857V27.4557H64.7094C65.3009 27.47 65.5717 27.7105 65.7356 28.4534C65.8942 29.1625 66.0314 29.6328 66.1187 29.7985H67.1876C67.0736 29.5758 66.9186 28.922 66.7387 28.2093C66.5961 27.6553 66.3574 27.2615 65.9441 27.1048ZM64.8021 26.6914H64.1857V24.8902C64.2908 24.8635 64.5028 24.8386 64.8324 24.8386C65.5058 24.8404 65.9423 25.1308 65.9423 25.7525C65.9423 26.3191 65.5076 26.6914 64.8021 26.6914Z" fill="#007DC5"/>
<path d="M70.585 26.6806C70.3623 27.3772 70.1539 28.0791 70.0007 28.7561H69.9828C69.8332 28.0613 69.6372 27.3896 69.4199 26.6645L68.636 24.0527H67.4922L69.3504 29.7965H70.5529L72.5376 24.0527H71.4206L70.585 26.6806Z" fill="#007DC5"/>
<path d="M81.4673 27.2491H83.6319V26.3939H81.4673V24.917H83.7602V24.0547H80.418V29.7967H83.8867V28.9344H81.4673V27.2491Z" fill="#007DC5"/>
<path d="M78.2289 24.8287C78.6975 24.8287 79.0805 24.9321 79.3478 25.0532L79.5758 24.2177C79.362 24.1019 78.8756 23.9629 78.1844 23.9629C76.4295 23.9629 75.1094 25.1031 75.1094 26.9916C75.1094 28.7393 76.2193 29.8866 78.0419 29.8866C78.7367 29.8866 79.2836 29.7512 79.5313 29.6247L79.3584 28.7981C79.0805 28.9228 78.6387 29.0065 78.2129 29.0065C76.9497 29.0065 76.214 28.2048 76.214 26.9381C76.214 25.5592 77.0566 24.8287 78.2289 24.8287Z" fill="#007DC5"/>
<path d="M56.3453 26.4537C55.5775 26.1615 55.2461 25.9531 55.2461 25.513C55.2461 25.1745 55.5294 24.8218 56.1939 24.8218C56.7337 24.8218 57.1346 24.9857 57.3412 25.0944L57.5924 24.2481C57.2931 24.0967 56.837 23.9648 56.2153 23.9648C54.9699 23.9648 54.1825 24.6739 54.1825 25.6146C54.1825 26.4377 54.7882 26.9472 55.7378 27.2839C56.4629 27.5476 56.7551 27.8041 56.7551 28.2371C56.7551 28.7074 56.381 29.021 55.7111 29.021C55.1766 29.021 54.6617 28.8499 54.3232 28.654L54.0898 29.5234C54.4034 29.7158 55.0341 29.8904 55.6416 29.8904C57.1239 29.8904 57.8205 29.0887 57.8205 28.164C57.8223 27.3356 57.343 26.8332 56.3453 26.4537Z" fill="#007DC5"/>
<path d="M59.815 27.2491H61.9796V26.3939H59.815V24.917H62.1097V24.0547H58.7656V29.7967H62.2361V28.9344H59.815V27.2491Z" fill="#007DC5"/>
<path d="M86.8063 26.4537C86.0402 26.1615 85.707 25.9531 85.707 25.513C85.707 25.1745 85.9903 24.8218 86.6548 24.8218C87.1946 24.8218 87.5955 24.9857 87.8022 25.0944L88.0534 24.2481C87.7541 24.0967 87.298 23.9648 86.6762 23.9648C85.4309 23.9648 84.6434 24.6739 84.6434 25.6146C84.6434 26.4377 85.2492 26.9472 86.1987 27.2839C86.9238 27.5476 87.216 27.8041 87.216 28.2371C87.216 28.7074 86.8419 29.021 86.172 29.021C85.6375 29.021 85.1227 28.8499 84.7842 28.654L84.5508 29.5234C84.8643 29.7158 85.495 29.8904 86.1025 29.8904C87.5848 29.8904 88.2814 29.0887 88.2814 28.164C88.2832 27.3356 87.8039 26.8332 86.8063 26.4537Z" fill="#007DC5"/>
<path d="M0 10.7518C0 8.15072 1.69072 6.59006 4.16177 6.59006V2.16818C4.16177 0.867628 3.29414 0 2.08088 0C0.867629 0 0 0.867628 0 2.16818V10.7518Z" fill="url(#paint0_linear_5361_58812)"/>
<path d="M7.37039 29.9552C8.41083 29.9552 9.36398 29.7824 10.2316 29.4778C5.85249 30.2154 4.16177 27.2241 4.16177 23.8426V9.97128H9.23392C10.4044 9.97128 11.1848 9.27825 11.1848 8.28056C11.1848 7.28288 10.4044 6.58984 9.23392 6.58984H4.16177C1.69072 6.58984 0 8.15051 0 10.7516V22.6722C0 27.4414 2.73116 29.9552 7.37039 29.9552Z" fill="url(#paint1_linear_5361_58812)"/>
<path d="M10.23 29.4764C11.9635 28.8262 13.3086 27.6129 14.1744 25.8349L12.2236 22.3234C11.356 24.9245 9.83983 26.3124 7.75894 26.3124C5.59076 26.3124 4.16016 25.0546 4.16016 22.1934V23.8413C4.16016 27.2228 5.85087 30.214 10.23 29.4764Z" fill="url(#paint2_linear_5361_58812)"/>
<path d="M28.048 28.7853C18.1638 30.2586 15.0425 24.9709 15.0425 18.1653C15.0425 13.2232 18.0765 9.84174 22.4556 9.84174C24.059 9.84174 25.4041 10.1891 26.6174 10.7521C27.1803 11.0122 27.6578 11.0995 28.0907 11.0995C29.1312 11.0995 29.8242 10.4065 29.8242 9.36606C29.8242 8.71578 29.434 8.06551 28.5237 7.63258C26.8757 6.80949 24.7521 6.33203 22.4538 6.33203C15.6037 6.33203 10.8789 11.1868 10.8789 18.2526C10.8789 25.1883 15.4308 30.0003 22.7567 30.0003C24.7538 29.9985 26.4873 29.6083 28.048 28.7853Z" fill="url(#paint3_linear_5361_58812)"/>
<path d="M10.8828 18.2506C10.8828 11.1849 15.6076 6.33008 22.4577 6.33008C24.756 6.33008 26.8796 6.80754 28.5276 7.63063C29.438 8.06355 29.8281 8.71383 29.8281 9.36411C29.8281 10.4045 29.1351 11.0976 28.0946 11.0976C27.6617 11.0976 27.1843 11.0103 26.6213 10.7502C25.1479 10.0571 23.7173 9.83979 22.4595 9.83979C16.4306 9.84157 10.8828 13.6559 10.8828 18.2506Z" fill="url(#paint4_linear_5361_58812)"/>
<path d="M36.7626 7.71875C36.3724 8.10892 36.155 8.58638 36.155 9.14936C36.155 10.58 37.4984 12.7036 40.6197 14.8718L44.1739 17.3428C46.775 19.1636 47.8155 20.8971 47.8155 23.4982C47.8155 25.3617 47.0779 26.9669 45.8646 28.0929C46.2976 27.7027 46.5577 27.1825 46.5577 26.4895C46.5577 24.9716 45.0398 22.5878 41.7884 20.3341L38.537 18.0804C35.8059 16.1723 34.7227 14.3961 34.7227 11.9678C34.7227 10.5372 35.2429 9.23665 36.1105 8.28351C36.3296 8.06438 36.5452 7.89156 36.7626 7.71875Z" fill="url(#paint5_linear_5361_58812)"/>
<path d="M33.9453 27.1824C33.9453 27.8754 34.2927 28.4402 35.2031 28.8731C36.4609 29.4806 38.4972 30.0008 40.318 30.0008C42.6163 30.0008 44.5225 29.3078 45.8676 28.0928C46.3006 27.7026 46.5607 27.1824 46.5607 26.4893C46.5607 24.9714 45.0428 22.5877 41.7914 20.334C43.2647 21.3744 43.8723 22.2421 43.8723 23.4981C43.8723 25.3616 42.3989 26.6194 40.2735 26.6194C38.2354 26.6194 36.5019 25.5789 35.5487 25.5789C34.5956 25.5789 33.9453 26.2292 33.9453 27.1824Z" fill="url(#paint6_linear_5361_58812)"/>
<path d="M40.6188 14.8711C39.2309 13.8735 38.6252 12.9631 38.6252 11.8799C38.6252 10.492 39.7529 9.62617 41.3563 9.62617C43.3945 9.62617 44.3476 10.5793 45.5609 10.5793C46.514 10.5793 47.1643 9.92904 47.1643 8.97589C47.1643 8.28286 46.8169 7.7181 45.9065 7.28518C44.4759 6.59214 42.9152 6.33203 41.2245 6.33203C39.4465 6.33203 37.8858 6.85225 36.7599 7.71988C36.3697 8.11005 36.1523 8.58751 36.1523 9.15049C36.1523 10.5793 37.4974 12.703 40.6188 14.8711Z" fill="url(#paint7_linear_5361_58812)"/>
<path d="M15.043 18.1654C15.043 24.9711 18.1643 30.2606 28.0485 28.7854C31.2126 27.1375 33.4681 23.8006 35.0269 18.6857L35.9373 15.6944C35.0697 14.5667 34.7241 13.3106 34.7241 11.9656C34.7241 10.5349 35.2443 9.23439 36.1119 8.28125C34.8114 9.6691 33.7282 11.7054 32.8605 14.5667L31.8628 17.8608C30.0848 23.6705 27.2682 26.4444 22.889 26.4444C18.077 26.4444 15.043 23.1075 15.043 18.1654Z" fill="url(#paint8_linear_5361_58812)"/>
<defs>
<linearGradient id="paint0_linear_5361_58812" x1="2.08144" y1="1.14498" x2="2.08144" y2="9.72824" gradientUnits="userSpaceOnUse">
<stop stop-color="#FFC708"/>
<stop offset="0.9997" stop-color="#F05731"/>
<stop offset="1" stop-color="#F05731"/>
</linearGradient>
<linearGradient id="paint1_linear_5361_58812" x1="6.79943" y1="7.74042" x2="4.55484" y2="23.9806" gradientUnits="userSpaceOnUse">
<stop stop-color="#F80000"/>
<stop offset="1" stop-color="#EE3984"/>
</linearGradient>
<linearGradient id="paint2_linear_5361_58812" x1="3.68132" y1="26.9509" x2="15.4328" y2="23.2221" gradientUnits="userSpaceOnUse">
<stop stop-color="#EE3984"/>
<stop offset="0.9997" stop-color="#7800DA"/>
<stop offset="1" stop-color="#7800DA"/>
</linearGradient>
<linearGradient id="paint3_linear_5361_58812" x1="19.6577" y1="12.2471" x2="23.9515" y2="27.3885" gradientUnits="userSpaceOnUse">
<stop stop-color="#FF0000"/>
<stop offset="0.9994" stop-color="#EE3984"/>
<stop offset="1" stop-color="#EE3984"/>
</linearGradient>
<linearGradient id="paint4_linear_5361_58812" x1="10.8824" y1="12.2908" x2="29.8263" y2="12.2908" gradientUnits="userSpaceOnUse">
<stop stop-color="#FFC708"/>
<stop offset="1" stop-color="#FA3B00"/>
</linearGradient>
<linearGradient id="paint5_linear_5361_58812" x1="34.7254" y1="17.9054" x2="47.817" y2="17.9054" gradientUnits="userSpaceOnUse">
<stop stop-color="#FF0000"/>
<stop offset="1" stop-color="#EE3984"/>
</linearGradient>
<linearGradient id="paint6_linear_5361_58812" x1="45.2852" y1="24.2241" x2="33.7597" y2="27.275" gradientUnits="userSpaceOnUse">
<stop stop-color="#EE3984"/>
<stop offset="1" stop-color="#7800DA"/>
</linearGradient>
<linearGradient id="paint7_linear_5361_58812" x1="36.1532" y1="10.6003" x2="47.1641" y2="10.6003" gradientUnits="userSpaceOnUse">
<stop stop-color="#FFC708"/>
<stop offset="1" stop-color="#F05731"/>
</linearGradient>
<linearGradient id="paint8_linear_5361_58812" x1="21.7202" y1="24.677" x2="29.7428" y2="11.5696" gradientUnits="userSpaceOnUse">
<stop stop-color="#EE3984"/>
<stop offset="1" stop-color="#7800DA"/>
</linearGradient>
</defs>
</svg>
